%TF.GenerationSoftware,KiCad,Pcbnew,(6.0.2-0)*%
%TF.CreationDate,2023-06-03T21:04:40-06:00*%
%TF.ProjectId,Catlin RP2040 Sensing Controller,4361746c-696e-4205-9250-323034302053,rev?*%
%TF.SameCoordinates,Original*%
%TF.FileFunction,Paste,Top*%
%TF.FilePolarity,Positive*%
%FSLAX46Y46*%
G04 Gerber Fmt 4.6, Leading zero omitted, Abs format (unit mm)*
G04 Created by KiCad (PCBNEW (6.0.2-0)) date 2023-06-03 21:04:40*
%MOMM*%
%LPD*%
G01*
G04 APERTURE LIST*
G04 Aperture macros list*
%AMRoundRect*
0 Rectangle with rounded corners*
0 $1 Rounding radius*
0 $2 $3 $4 $5 $6 $7 $8 $9 X,Y pos of 4 corners*
0 Add a 4 corners polygon primitive as box body*
4,1,4,$2,$3,$4,$5,$6,$7,$8,$9,$2,$3,0*
0 Add four circle primitives for the rounded corners*
1,1,$1+$1,$2,$3*
1,1,$1+$1,$4,$5*
1,1,$1+$1,$6,$7*
1,1,$1+$1,$8,$9*
0 Add four rect primitives between the rounded corners*
20,1,$1+$1,$2,$3,$4,$5,0*
20,1,$1+$1,$4,$5,$6,$7,0*
20,1,$1+$1,$6,$7,$8,$9,0*
20,1,$1+$1,$8,$9,$2,$3,0*%
G04 Aperture macros list end*
%ADD10C,0.010000*%
%ADD11C,0.100000*%
%ADD12R,0.600000X1.000000*%
%ADD13R,0.700000X0.420000*%
%ADD14RoundRect,0.105000X-0.245000X-0.105000X0.245000X-0.105000X0.245000X0.105000X-0.245000X0.105000X0*%
%ADD15RoundRect,0.250000X0.362500X1.425000X-0.362500X1.425000X-0.362500X-1.425000X0.362500X-1.425000X0*%
%ADD16RoundRect,0.450000X0.800000X0.450000X-0.800000X0.450000X-0.800000X-0.450000X0.800000X-0.450000X0*%
%ADD17RoundRect,0.225000X0.250000X-0.225000X0.250000X0.225000X-0.250000X0.225000X-0.250000X-0.225000X0*%
%ADD18RoundRect,0.250000X1.100000X-0.412500X1.100000X0.412500X-1.100000X0.412500X-1.100000X-0.412500X0*%
%ADD19RoundRect,0.155000X-0.155000X0.212500X-0.155000X-0.212500X0.155000X-0.212500X0.155000X0.212500X0*%
%ADD20RoundRect,0.155000X0.212500X0.155000X-0.212500X0.155000X-0.212500X-0.155000X0.212500X-0.155000X0*%
%ADD21RoundRect,0.150000X-0.150000X0.587500X-0.150000X-0.587500X0.150000X-0.587500X0.150000X0.587500X0*%
%ADD22RoundRect,0.155000X-0.212500X-0.155000X0.212500X-0.155000X0.212500X0.155000X-0.212500X0.155000X0*%
%ADD23RoundRect,0.140000X-0.140000X-0.170000X0.140000X-0.170000X0.140000X0.170000X-0.140000X0.170000X0*%
%ADD24RoundRect,0.225000X-0.225000X-0.250000X0.225000X-0.250000X0.225000X0.250000X-0.225000X0.250000X0*%
%ADD25RoundRect,0.140000X0.170000X-0.140000X0.170000X0.140000X-0.170000X0.140000X-0.170000X-0.140000X0*%
%ADD26RoundRect,0.155000X0.155000X-0.212500X0.155000X0.212500X-0.155000X0.212500X-0.155000X-0.212500X0*%
%ADD27RoundRect,0.150000X0.587500X0.150000X-0.587500X0.150000X-0.587500X-0.150000X0.587500X-0.150000X0*%
%ADD28RoundRect,0.237500X-0.250000X-0.237500X0.250000X-0.237500X0.250000X0.237500X-0.250000X0.237500X0*%
%ADD29RoundRect,0.160000X-0.160000X0.197500X-0.160000X-0.197500X0.160000X-0.197500X0.160000X0.197500X0*%
%ADD30RoundRect,0.105000X0.245000X0.105000X-0.245000X0.105000X-0.245000X-0.105000X0.245000X-0.105000X0*%
%ADD31RoundRect,0.140000X0.140000X0.170000X-0.140000X0.170000X-0.140000X-0.170000X0.140000X-0.170000X0*%
%ADD32RoundRect,0.150000X0.150000X-0.825000X0.150000X0.825000X-0.150000X0.825000X-0.150000X-0.825000X0*%
%ADD33RoundRect,0.250000X-0.362500X-1.425000X0.362500X-1.425000X0.362500X1.425000X-0.362500X1.425000X0*%
%ADD34RoundRect,0.250000X-0.650000X0.325000X-0.650000X-0.325000X0.650000X-0.325000X0.650000X0.325000X0*%
%ADD35RoundRect,0.250000X-1.100000X0.412500X-1.100000X-0.412500X1.100000X-0.412500X1.100000X0.412500X0*%
%ADD36RoundRect,0.237500X0.237500X-0.250000X0.237500X0.250000X-0.237500X0.250000X-0.237500X-0.250000X0*%
%ADD37RoundRect,0.237500X-0.300000X-0.237500X0.300000X-0.237500X0.300000X0.237500X-0.300000X0.237500X0*%
%ADD38RoundRect,0.140000X-0.170000X0.140000X-0.170000X-0.140000X0.170000X-0.140000X0.170000X0.140000X0*%
%ADD39RoundRect,0.250000X0.450000X-0.350000X0.450000X0.350000X-0.450000X0.350000X-0.450000X-0.350000X0*%
%ADD40RoundRect,0.200000X-0.200000X-0.275000X0.200000X-0.275000X0.200000X0.275000X-0.200000X0.275000X0*%
%ADD41RoundRect,0.150000X-0.825000X-0.150000X0.825000X-0.150000X0.825000X0.150000X-0.825000X0.150000X0*%
%ADD42RoundRect,0.150000X-0.150000X-0.575000X0.150000X-0.575000X0.150000X0.575000X-0.150000X0.575000X0*%
%ADD43RoundRect,0.075000X-0.075000X-0.650000X0.075000X-0.650000X0.075000X0.650000X-0.075000X0.650000X0*%
%ADD44RoundRect,0.050800X-0.304800X-0.050800X0.304800X-0.050800X0.304800X0.050800X-0.304800X0.050800X0*%
%ADD45RoundRect,0.076200X-1.435100X-0.076200X1.435100X-0.076200X1.435100X0.076200X-1.435100X0.076200X0*%
%ADD46RoundRect,0.050800X-1.460500X-0.050800X1.460500X-0.050800X1.460500X0.050800X-1.460500X0.050800X0*%
%ADD47RoundRect,0.063500X-0.952500X-0.063500X0.952500X-0.063500X0.952500X0.063500X-0.952500X0.063500X0*%
%ADD48RoundRect,0.050800X-1.155700X-0.050800X1.155700X-0.050800X1.155700X0.050800X-1.155700X0.050800X0*%
%ADD49RoundRect,0.050800X-0.050800X0.266700X-0.050800X-0.266700X0.050800X-0.266700X0.050800X0.266700X0*%
%ADD50R,0.203200X0.635000*%
%ADD51RoundRect,0.060000X-0.060000X0.295000X-0.060000X-0.295000X0.060000X-0.295000X0.060000X0.295000X0*%
%ADD52RoundRect,0.125000X-0.125000X-0.440000X0.125000X-0.440000X0.125000X0.440000X-0.125000X0.440000X0*%
%ADD53RoundRect,0.075000X-0.075000X0.895000X-0.075000X-0.895000X0.075000X-0.895000X0.075000X0.895000X0*%
%ADD54RoundRect,0.053375X-0.053374X0.261624X-0.053374X-0.261624X0.053374X-0.261624X0.053374X0.261624X0*%
%ADD55RoundRect,0.050000X-0.050000X0.257499X-0.050000X-0.257499X0.050000X-0.257499X0.050000X0.257499X0*%
%ADD56R,0.635000X0.203200*%
%ADD57RoundRect,0.050800X-0.266700X-0.050800X0.266700X-0.050800X0.266700X0.050800X-0.266700X0.050800X0*%
%ADD58RoundRect,0.075000X-0.230000X-0.075000X0.230000X-0.075000X0.230000X0.075000X-0.230000X0.075000X0*%
%ADD59RoundRect,0.075000X0.075000X-0.230000X0.075000X0.230000X-0.075000X0.230000X-0.075000X-0.230000X0*%
%ADD60RoundRect,0.075000X0.230000X0.075000X-0.230000X0.075000X-0.230000X-0.075000X0.230000X-0.075000X0*%
%ADD61RoundRect,0.075000X-0.075000X0.230000X-0.075000X-0.230000X0.075000X-0.230000X0.075000X0.230000X0*%
%ADD62RoundRect,0.225000X-0.250000X0.225000X-0.250000X-0.225000X0.250000X-0.225000X0.250000X0.225000X0*%
%ADD63RoundRect,0.237500X0.250000X0.237500X-0.250000X0.237500X-0.250000X-0.237500X0.250000X-0.237500X0*%
%ADD64RoundRect,0.160000X0.160000X-0.197500X0.160000X0.197500X-0.160000X0.197500X-0.160000X-0.197500X0*%
%ADD65RoundRect,0.250000X-0.325000X-0.650000X0.325000X-0.650000X0.325000X0.650000X-0.325000X0.650000X0*%
%ADD66RoundRect,0.150000X0.150000X-0.650000X0.150000X0.650000X-0.150000X0.650000X-0.150000X-0.650000X0*%
%ADD67RoundRect,0.200000X0.200000X0.275000X-0.200000X0.275000X-0.200000X-0.275000X0.200000X-0.275000X0*%
%ADD68RoundRect,0.250000X0.325000X1.100000X-0.325000X1.100000X-0.325000X-1.100000X0.325000X-1.100000X0*%
%ADD69RoundRect,0.218750X0.256250X-0.218750X0.256250X0.218750X-0.256250X0.218750X-0.256250X-0.218750X0*%
%ADD70RoundRect,0.200000X0.275000X-0.200000X0.275000X0.200000X-0.275000X0.200000X-0.275000X-0.200000X0*%
%ADD71RoundRect,0.237500X0.237500X-0.300000X0.237500X0.300000X-0.237500X0.300000X-0.237500X-0.300000X0*%
%ADD72R,0.600000X1.550000*%
%ADD73RoundRect,0.150000X-0.150000X0.625000X-0.150000X-0.625000X0.150000X-0.625000X0.150000X0.625000X0*%
%ADD74RoundRect,0.300000X-0.300000X0.600000X-0.300000X-0.600000X0.300000X-0.600000X0.300000X0.600000X0*%
%ADD75RoundRect,0.075000X0.075000X0.200000X-0.075000X0.200000X-0.075000X-0.200000X0.075000X-0.200000X0*%
%ADD76RoundRect,0.100000X0.100000X0.175000X-0.100000X0.175000X-0.100000X-0.175000X0.100000X-0.175000X0*%
%ADD77RoundRect,0.325000X-0.525000X0.325000X-0.525000X-0.325000X0.525000X-0.325000X0.525000X0.325000X0*%
%ADD78RoundRect,0.250000X0.412500X1.100000X-0.412500X1.100000X-0.412500X-1.100000X0.412500X-1.100000X0*%
%ADD79R,0.800000X1.000000*%
%ADD80R,1.500000X0.700000*%
%ADD81RoundRect,0.175000X-0.575000X0.175000X-0.575000X-0.175000X0.575000X-0.175000X0.575000X0.175000X0*%
%ADD82R,0.850000X1.450000*%
%ADD83RoundRect,0.212500X0.212500X-0.512500X0.212500X0.512500X-0.212500X0.512500X-0.212500X-0.512500X0*%
%ADD84R,0.850000X1.050000*%
%ADD85RoundRect,0.225000X0.225000X0.250000X-0.225000X0.250000X-0.225000X-0.250000X0.225000X-0.250000X0*%
%ADD86RoundRect,0.075000X0.725000X-0.075000X0.725000X0.075000X-0.725000X0.075000X-0.725000X-0.075000X0*%
%ADD87RoundRect,0.075000X-0.075000X-0.725000X0.075000X-0.725000X0.075000X0.725000X-0.075000X0.725000X0*%
%ADD88RoundRect,0.075000X-0.075000X-0.730400X0.075000X-0.730400X0.075000X0.730400X-0.075000X0.730400X0*%
%ADD89RoundRect,0.075000X-0.074999X-0.730400X0.074999X-0.730400X0.074999X0.730400X-0.074999X0.730400X0*%
%ADD90RoundRect,0.075000X0.725000X-0.074999X0.725000X0.074999X-0.725000X0.074999X-0.725000X-0.074999X0*%
%ADD91RoundRect,0.081600X-0.081600X-0.718400X0.081600X-0.718400X0.081600X0.718400X-0.081600X0.718400X0*%
%ADD92RoundRect,0.075000X-0.075000X-0.425000X0.075000X-0.425000X0.075000X0.425000X-0.075000X0.425000X0*%
%ADD93RoundRect,0.150000X-0.587500X-0.150000X0.587500X-0.150000X0.587500X0.150000X-0.587500X0.150000X0*%
%ADD94RoundRect,0.325000X-0.325000X-0.525000X0.325000X-0.525000X0.325000X0.525000X-0.325000X0.525000X0*%
%ADD95RoundRect,0.250000X-1.100000X0.325000X-1.100000X-0.325000X1.100000X-0.325000X1.100000X0.325000X0*%
%ADD96R,2.100000X1.800000*%
%ADD97RoundRect,0.218750X0.218750X0.256250X-0.218750X0.256250X-0.218750X-0.256250X0.218750X-0.256250X0*%
%ADD98RoundRect,0.237500X-0.237500X0.250000X-0.237500X-0.250000X0.237500X-0.250000X0.237500X0.250000X0*%
%ADD99R,0.420000X0.700000*%
%ADD100R,1.000000X0.600000*%
%ADD101RoundRect,0.105000X-0.105000X0.245000X-0.105000X-0.245000X0.105000X-0.245000X0.105000X0.245000X0*%
%ADD102RoundRect,0.237500X0.300000X0.237500X-0.300000X0.237500X-0.300000X-0.237500X0.300000X-0.237500X0*%
%ADD103RoundRect,0.325000X0.525000X-0.325000X0.525000X0.325000X-0.525000X0.325000X-0.525000X-0.325000X0*%
%ADD104RoundRect,0.250000X-0.312500X-0.625000X0.312500X-0.625000X0.312500X0.625000X-0.312500X0.625000X0*%
%ADD105RoundRect,0.250000X1.100000X-0.325000X1.100000X0.325000X-1.100000X0.325000X-1.100000X-0.325000X0*%
%ADD106RoundRect,0.237500X-0.237500X0.300000X-0.237500X-0.300000X0.237500X-0.300000X0.237500X0.300000X0*%
%ADD107RoundRect,0.250000X0.650000X-0.325000X0.650000X0.325000X-0.650000X0.325000X-0.650000X-0.325000X0*%
%ADD108RoundRect,0.075000X-0.075000X-0.300000X0.075000X-0.300000X0.075000X0.300000X-0.075000X0.300000X0*%
%ADD109RoundRect,0.075000X-0.300000X0.075000X-0.300000X-0.075000X0.300000X-0.075000X0.300000X0.075000X0*%
%ADD110R,2.850000X2.850000*%
%ADD111RoundRect,0.150000X-0.625000X-0.150000X0.625000X-0.150000X0.625000X0.150000X-0.625000X0.150000X0*%
%ADD112R,1.550000X0.600000*%
%ADD113R,1.800000X1.200000*%
%ADD114R,0.250000X0.275000*%
%ADD115R,0.275000X0.250000*%
%ADD116RoundRect,0.062500X-0.075000X-0.062500X0.075000X-0.062500X0.075000X0.062500X-0.075000X0.062500X0*%
%ADD117R,1.000000X1.800000*%
%ADD118RoundRect,0.075000X0.100000X0.075000X-0.100000X0.075000X-0.100000X-0.075000X0.100000X-0.075000X0*%
%ADD119RoundRect,0.075000X-0.075000X0.100000X-0.075000X-0.100000X0.075000X-0.100000X0.075000X0.100000X0*%
%ADD120RoundRect,0.075000X-0.075000X-0.200000X0.075000X-0.200000X0.075000X0.200000X-0.075000X0.200000X0*%
%ADD121RoundRect,0.075000X-0.075000X-0.205000X0.075000X-0.205000X0.075000X0.205000X-0.075000X0.205000X0*%
%ADD122R,0.300000X0.550000*%
%ADD123RoundRect,0.325000X-0.325000X0.450000X-0.325000X-0.450000X0.325000X-0.450000X0.325000X0.450000X0*%
%ADD124RoundRect,0.450000X-0.800000X-0.450000X0.800000X-0.450000X0.800000X0.450000X-0.800000X0.450000X0*%
%ADD125RoundRect,0.350000X0.700000X-0.350000X0.700000X0.350000X-0.700000X0.350000X-0.700000X-0.350000X0*%
%ADD126RoundRect,0.218750X-0.218750X-0.256250X0.218750X-0.256250X0.218750X0.256250X-0.218750X0.256250X0*%
%ADD127RoundRect,0.050000X0.387500X0.050000X-0.387500X0.050000X-0.387500X-0.050000X0.387500X-0.050000X0*%
%ADD128R,0.875000X0.200000*%
%ADD129RoundRect,0.050000X-0.050000X0.387500X-0.050000X-0.387500X0.050000X-0.387500X0.050000X0.387500X0*%
%ADD130R,0.200000X0.875000*%
%ADD131RoundRect,0.050000X0.050000X-0.387500X0.050000X0.387500X-0.050000X0.387500X-0.050000X-0.387500X0*%
%ADD132RoundRect,0.325000X0.325000X-0.450000X0.325000X0.450000X-0.325000X0.450000X-0.325000X-0.450000X0*%
%ADD133R,1.500000X0.800000*%
%ADD134RoundRect,0.200000X-0.550000X0.200000X-0.550000X-0.200000X0.550000X-0.200000X0.550000X0.200000X0*%
%ADD135RoundRect,0.362500X-0.637500X0.362500X-0.637500X-0.362500X0.637500X-0.362500X0.637500X0.362500X0*%
%ADD136RoundRect,0.725000X-1.775000X-0.725000X1.775000X-0.725000X1.775000X0.725000X-1.775000X0.725000X0*%
%ADD137RoundRect,0.825000X-1.675000X-0.825000X1.675000X-0.825000X1.675000X0.825000X-1.675000X0.825000X0*%
%ADD138RoundRect,0.250000X0.312500X0.625000X-0.312500X0.625000X-0.312500X-0.625000X0.312500X-0.625000X0*%
G04 APERTURE END LIST*
D10*
%TO.C,D18*%
X40495000Y-55465000D02*
X40495000Y-56565000D01*
X40495000Y-56565000D02*
X39395000Y-56565000D01*
X39395000Y-56565000D02*
X39395000Y-55465000D01*
X39395000Y-55465000D02*
X40495000Y-55465000D01*
G36*
X40495000Y-56565000D02*
G01*
X39395000Y-56565000D01*
X39395000Y-55465000D01*
X40495000Y-55465000D01*
X40495000Y-56565000D01*
G37*
X40495000Y-56565000D02*
X39395000Y-56565000D01*
X39395000Y-55465000D01*
X40495000Y-55465000D01*
X40495000Y-56565000D01*
X40495000Y-52665000D02*
X40495000Y-53765000D01*
X40495000Y-53765000D02*
X39395000Y-53765000D01*
X39395000Y-53765000D02*
X39395000Y-52665000D01*
X39395000Y-52665000D02*
X40495000Y-52665000D01*
G36*
X40495000Y-53765000D02*
G01*
X39395000Y-53765000D01*
X39395000Y-52665000D01*
X40495000Y-52665000D01*
X40495000Y-53765000D01*
G37*
X40495000Y-53765000D02*
X39395000Y-53765000D01*
X39395000Y-52665000D01*
X40495000Y-52665000D01*
X40495000Y-53765000D01*
%TO.C,D13*%
X136957500Y-84090000D02*
X138057500Y-84090000D01*
X138057500Y-84090000D02*
X138057500Y-85190000D01*
X138057500Y-85190000D02*
X136957500Y-85190000D01*
X136957500Y-85190000D02*
X136957500Y-84090000D01*
G36*
X138057500Y-85190000D02*
G01*
X136957500Y-85190000D01*
X136957500Y-84090000D01*
X138057500Y-84090000D01*
X138057500Y-85190000D01*
G37*
X138057500Y-85190000D02*
X136957500Y-85190000D01*
X136957500Y-84090000D01*
X138057500Y-84090000D01*
X138057500Y-85190000D01*
X139757500Y-84090000D02*
X140857500Y-84090000D01*
X140857500Y-84090000D02*
X140857500Y-85190000D01*
X140857500Y-85190000D02*
X139757500Y-85190000D01*
X139757500Y-85190000D02*
X139757500Y-84090000D01*
G36*
X140857500Y-85190000D02*
G01*
X139757500Y-85190000D01*
X139757500Y-84090000D01*
X140857500Y-84090000D01*
X140857500Y-85190000D01*
G37*
X140857500Y-85190000D02*
X139757500Y-85190000D01*
X139757500Y-84090000D01*
X140857500Y-84090000D01*
X140857500Y-85190000D01*
D11*
%TO.C,U10*%
X44126601Y-82345001D02*
X44151601Y-82420001D01*
X44151601Y-82420001D02*
X44150000Y-83140000D01*
X44150000Y-83140000D02*
X44301601Y-83210000D01*
X44301601Y-83210000D02*
X44301601Y-84150001D01*
X44301601Y-84150001D02*
X43901601Y-84150001D01*
X43901601Y-84150001D02*
X43900000Y-83230000D01*
X43900000Y-83230000D02*
X43950000Y-83150000D01*
X43950000Y-83150000D02*
X43948401Y-82420001D01*
X43948401Y-82420001D02*
X43973401Y-82345001D01*
X43973401Y-82345001D02*
X44126601Y-82345001D01*
G36*
X44151601Y-82420001D02*
G01*
X44150000Y-83140000D01*
X44301601Y-83210000D01*
X44301601Y-84150001D01*
X43901601Y-84150001D01*
X43900000Y-83230000D01*
X43950000Y-83150000D01*
X43948401Y-82420001D01*
X43973401Y-82345001D01*
X44126601Y-82345001D01*
X44151601Y-82420001D01*
G37*
X44151601Y-82420001D02*
X44150000Y-83140000D01*
X44301601Y-83210000D01*
X44301601Y-84150001D01*
X43901601Y-84150001D01*
X43900000Y-83230000D01*
X43950000Y-83150000D01*
X43948401Y-82420001D01*
X43973401Y-82345001D01*
X44126601Y-82345001D01*
X44151601Y-82420001D01*
X44526601Y-82360000D02*
X44541601Y-82420001D01*
X44541601Y-82420001D02*
X44541601Y-82880001D01*
X44541601Y-82880001D02*
X44540000Y-82899822D01*
X44540000Y-82899822D02*
X44540000Y-82918881D01*
X44540000Y-82918881D02*
X44534479Y-82936447D01*
X44534479Y-82936447D02*
X44521843Y-82951843D01*
X44521843Y-82951843D02*
X44506447Y-82960000D01*
X44506447Y-82960000D02*
X44488882Y-82960000D01*
X44488882Y-82960000D02*
X44470000Y-82960000D01*
X44470000Y-82960000D02*
X44450001Y-82960000D01*
X44450001Y-82960000D02*
X44430000Y-82960000D01*
X44430000Y-82960000D02*
X44420000Y-82960000D01*
X44420000Y-82960000D02*
X44410000Y-82960000D01*
X44410000Y-82960000D02*
X44400000Y-82944125D01*
X44400000Y-82944125D02*
X44400000Y-82930000D01*
X44400000Y-82930000D02*
X44400000Y-82910000D01*
X44400000Y-82910000D02*
X44400000Y-82890000D01*
X44400000Y-82890000D02*
X44400000Y-82880001D01*
X44400000Y-82880001D02*
X44398401Y-82420001D01*
X44398401Y-82420001D02*
X44400000Y-82360000D01*
X44400000Y-82360000D02*
X44526601Y-82360000D01*
G36*
X44541601Y-82420001D02*
G01*
X44541601Y-82880001D01*
X44540000Y-82899822D01*
X44540000Y-82918881D01*
X44534479Y-82936447D01*
X44521843Y-82951843D01*
X44506447Y-82960000D01*
X44410000Y-82960000D01*
X44400000Y-82944125D01*
X44400000Y-82880001D01*
X44398401Y-82420001D01*
X44400000Y-82360000D01*
X44526601Y-82360000D01*
X44541601Y-82420001D01*
G37*
X44541601Y-82420001D02*
X44541601Y-82880001D01*
X44540000Y-82899822D01*
X44540000Y-82918881D01*
X44534479Y-82936447D01*
X44521843Y-82951843D01*
X44506447Y-82960000D01*
X44410000Y-82960000D01*
X44400000Y-82944125D01*
X44400000Y-82880001D01*
X44398401Y-82420001D01*
X44400000Y-82360000D01*
X44526601Y-82360000D01*
X44541601Y-82420001D01*
X43635774Y-82405350D02*
X43651601Y-82420001D01*
X43651601Y-82420001D02*
X43651601Y-82880001D01*
X43651601Y-82880001D02*
X43650000Y-82899822D01*
X43650000Y-82899822D02*
X43650000Y-82910000D01*
X43650000Y-82910000D02*
X43650000Y-82920000D01*
X43650000Y-82920000D02*
X43650000Y-82930000D01*
X43650000Y-82930000D02*
X43650000Y-82940000D01*
X43650000Y-82940000D02*
X43640000Y-82940000D01*
X43640000Y-82940000D02*
X43630000Y-82940000D01*
X43630000Y-82940000D02*
X43620000Y-82940000D01*
X43620000Y-82940000D02*
X43620000Y-82930000D01*
X43620000Y-82930000D02*
X43606750Y-82936625D01*
X43606750Y-82936625D02*
X43593555Y-82940000D01*
X43593555Y-82940000D02*
X43578159Y-82940000D01*
X43578159Y-82940000D02*
X43565524Y-82936447D01*
X43565524Y-82936447D02*
X43556135Y-82918881D01*
X43556135Y-82918881D02*
X43550353Y-82899822D01*
X43550353Y-82899822D02*
X43548401Y-82880001D01*
X43548401Y-82880001D02*
X43548401Y-82420001D01*
X43548401Y-82420001D02*
X43579175Y-82410351D01*
X43579175Y-82410351D02*
X43635774Y-82405350D01*
G36*
X43651601Y-82420001D02*
G01*
X43651601Y-82880001D01*
X43650000Y-82899822D01*
X43650000Y-82940000D01*
X43620000Y-82940000D01*
X43620000Y-82930000D01*
X43606750Y-82936625D01*
X43593555Y-82940000D01*
X43578159Y-82940000D01*
X43565524Y-82936447D01*
X43556135Y-82918881D01*
X43550353Y-82899822D01*
X43548401Y-82880001D01*
X43548401Y-82420001D01*
X43579175Y-82410351D01*
X43635774Y-82405350D01*
X43651601Y-82420001D01*
G37*
X43651601Y-82420001D02*
X43651601Y-82880001D01*
X43650000Y-82899822D01*
X43650000Y-82940000D01*
X43620000Y-82940000D01*
X43620000Y-82930000D01*
X43606750Y-82936625D01*
X43593555Y-82940000D01*
X43578159Y-82940000D01*
X43565524Y-82936447D01*
X43556135Y-82918881D01*
X43550353Y-82899822D01*
X43548401Y-82880001D01*
X43548401Y-82420001D01*
X43579175Y-82410351D01*
X43635774Y-82405350D01*
X43651601Y-82420001D01*
D10*
%TO.C,D19*%
X78860000Y-60800000D02*
X78860000Y-59700000D01*
X78860000Y-59700000D02*
X79960000Y-59700000D01*
X79960000Y-59700000D02*
X79960000Y-60800000D01*
X79960000Y-60800000D02*
X78860000Y-60800000D01*
G36*
X79960000Y-60800000D02*
G01*
X78860000Y-60800000D01*
X78860000Y-59700000D01*
X79960000Y-59700000D01*
X79960000Y-60800000D01*
G37*
X79960000Y-60800000D02*
X78860000Y-60800000D01*
X78860000Y-59700000D01*
X79960000Y-59700000D01*
X79960000Y-60800000D01*
X78860000Y-58000000D02*
X78860000Y-56900000D01*
X78860000Y-56900000D02*
X79960000Y-56900000D01*
X79960000Y-56900000D02*
X79960000Y-58000000D01*
X79960000Y-58000000D02*
X78860000Y-58000000D01*
G36*
X79960000Y-58000000D02*
G01*
X78860000Y-58000000D01*
X78860000Y-56900000D01*
X79960000Y-56900000D01*
X79960000Y-58000000D01*
G37*
X79960000Y-58000000D02*
X78860000Y-58000000D01*
X78860000Y-56900000D01*
X79960000Y-56900000D01*
X79960000Y-58000000D01*
%TO.C,D5*%
X77000000Y-85520000D02*
X78100000Y-85520000D01*
X78100000Y-85520000D02*
X78100000Y-86620000D01*
X78100000Y-86620000D02*
X77000000Y-86620000D01*
X77000000Y-86620000D02*
X77000000Y-85520000D01*
G36*
X78100000Y-86620000D02*
G01*
X77000000Y-86620000D01*
X77000000Y-85520000D01*
X78100000Y-85520000D01*
X78100000Y-86620000D01*
G37*
X78100000Y-86620000D02*
X77000000Y-86620000D01*
X77000000Y-85520000D01*
X78100000Y-85520000D01*
X78100000Y-86620000D01*
X79800000Y-85520000D02*
X80900000Y-85520000D01*
X80900000Y-85520000D02*
X80900000Y-86620000D01*
X80900000Y-86620000D02*
X79800000Y-86620000D01*
X79800000Y-86620000D02*
X79800000Y-85520000D01*
G36*
X80900000Y-86620000D02*
G01*
X79800000Y-86620000D01*
X79800000Y-85520000D01*
X80900000Y-85520000D01*
X80900000Y-86620000D01*
G37*
X80900000Y-86620000D02*
X79800000Y-86620000D01*
X79800000Y-85520000D01*
X80900000Y-85520000D01*
X80900000Y-86620000D01*
%TO.C,U8*%
X39724000Y-63340000D02*
X39724000Y-60360000D01*
X39724000Y-60360000D02*
X43306000Y-60360000D01*
X43306000Y-60360000D02*
X43306000Y-63340000D01*
X43306000Y-63340000D02*
X39724000Y-63340000D01*
G36*
X43306000Y-63340000D02*
G01*
X39724000Y-63340000D01*
X39724000Y-60360000D01*
X43306000Y-60360000D01*
X43306000Y-63340000D01*
G37*
X43306000Y-63340000D02*
X39724000Y-63340000D01*
X39724000Y-60360000D01*
X43306000Y-60360000D01*
X43306000Y-63340000D01*
D11*
%TO.C,U12*%
X110297400Y-83680000D02*
X110297400Y-85232600D01*
X110297400Y-85232600D02*
X111850000Y-85232600D01*
X111850000Y-85232600D02*
X111850000Y-83680000D01*
X111850000Y-83680000D02*
X110297400Y-83680000D01*
G36*
X111850000Y-85232600D02*
G01*
X110297400Y-85232600D01*
X110297400Y-83680000D01*
X111850000Y-83680000D01*
X111850000Y-85232600D01*
G37*
X111850000Y-85232600D02*
X110297400Y-85232600D01*
X110297400Y-83680000D01*
X111850000Y-83680000D01*
X111850000Y-85232600D01*
X112050000Y-83680000D02*
X112050000Y-85232600D01*
X112050000Y-85232600D02*
X113602600Y-85232600D01*
X113602600Y-85232600D02*
X113602600Y-83680000D01*
X113602600Y-83680000D02*
X112050000Y-83680000D01*
G36*
X113602600Y-85232600D02*
G01*
X112050000Y-85232600D01*
X112050000Y-83680000D01*
X113602600Y-83680000D01*
X113602600Y-85232600D01*
G37*
X113602600Y-85232600D02*
X112050000Y-85232600D01*
X112050000Y-83680000D01*
X113602600Y-83680000D01*
X113602600Y-85232600D01*
X110297400Y-81927400D02*
X110297400Y-83480000D01*
X110297400Y-83480000D02*
X111850000Y-83480000D01*
X111850000Y-83480000D02*
X111850000Y-81927400D01*
X111850000Y-81927400D02*
X110297400Y-81927400D01*
G36*
X111850000Y-83480000D02*
G01*
X110297400Y-83480000D01*
X110297400Y-81927400D01*
X111850000Y-81927400D01*
X111850000Y-83480000D01*
G37*
X111850000Y-83480000D02*
X110297400Y-83480000D01*
X110297400Y-81927400D01*
X111850000Y-81927400D01*
X111850000Y-83480000D01*
X112050000Y-81927400D02*
X112050000Y-83480000D01*
X112050000Y-83480000D02*
X113602600Y-83480000D01*
X113602600Y-83480000D02*
X113602600Y-81927400D01*
X113602600Y-81927400D02*
X112050000Y-81927400D01*
G36*
X113602600Y-83480000D02*
G01*
X112050000Y-83480000D01*
X112050000Y-81927400D01*
X113602600Y-81927400D01*
X113602600Y-83480000D01*
G37*
X113602600Y-83480000D02*
X112050000Y-83480000D01*
X112050000Y-81927400D01*
X113602600Y-81927400D01*
X113602600Y-83480000D01*
D10*
%TO.C,D11*%
X95910000Y-51037500D02*
X95910000Y-49937500D01*
X95910000Y-49937500D02*
X97010000Y-49937500D01*
X97010000Y-49937500D02*
X97010000Y-51037500D01*
X97010000Y-51037500D02*
X95910000Y-51037500D01*
G36*
X97010000Y-51037500D02*
G01*
X95910000Y-51037500D01*
X95910000Y-49937500D01*
X97010000Y-49937500D01*
X97010000Y-51037500D01*
G37*
X97010000Y-51037500D02*
X95910000Y-51037500D01*
X95910000Y-49937500D01*
X97010000Y-49937500D01*
X97010000Y-51037500D01*
X95910000Y-53837500D02*
X95910000Y-52737500D01*
X95910000Y-52737500D02*
X97010000Y-52737500D01*
X97010000Y-52737500D02*
X97010000Y-53837500D01*
X97010000Y-53837500D02*
X95910000Y-53837500D01*
G36*
X97010000Y-53837500D02*
G01*
X95910000Y-53837500D01*
X95910000Y-52737500D01*
X97010000Y-52737500D01*
X97010000Y-53837500D01*
G37*
X97010000Y-53837500D02*
X95910000Y-53837500D01*
X95910000Y-52737500D01*
X97010000Y-52737500D01*
X97010000Y-53837500D01*
%TO.C,D8*%
X30010000Y-66750000D02*
X28910000Y-66750000D01*
X28910000Y-66750000D02*
X28910000Y-65650000D01*
X28910000Y-65650000D02*
X30010000Y-65650000D01*
X30010000Y-65650000D02*
X30010000Y-66750000D01*
G36*
X30010000Y-66750000D02*
G01*
X28910000Y-66750000D01*
X28910000Y-65650000D01*
X30010000Y-65650000D01*
X30010000Y-66750000D01*
G37*
X30010000Y-66750000D02*
X28910000Y-66750000D01*
X28910000Y-65650000D01*
X30010000Y-65650000D01*
X30010000Y-66750000D01*
X32810000Y-66750000D02*
X31710000Y-66750000D01*
X31710000Y-66750000D02*
X31710000Y-65650000D01*
X31710000Y-65650000D02*
X32810000Y-65650000D01*
X32810000Y-65650000D02*
X32810000Y-66750000D01*
G36*
X32810000Y-66750000D02*
G01*
X31710000Y-66750000D01*
X31710000Y-65650000D01*
X32810000Y-65650000D01*
X32810000Y-66750000D01*
G37*
X32810000Y-66750000D02*
X31710000Y-66750000D01*
X31710000Y-65650000D01*
X32810000Y-65650000D01*
X32810000Y-66750000D01*
%TO.C,IC1*%
G36*
X151050000Y-64850000D02*
G01*
X150050000Y-64850000D01*
X150050000Y-63850000D01*
X151050000Y-63850000D01*
X151050000Y-64850000D01*
G37*
G36*
X149450000Y-64850000D02*
G01*
X148450000Y-64850000D01*
X148450000Y-63850000D01*
X149450000Y-63850000D01*
X149450000Y-64850000D01*
G37*
G36*
X151050000Y-63250000D02*
G01*
X150050000Y-63250000D01*
X150050000Y-62250000D01*
X151050000Y-62250000D01*
X151050000Y-63250000D01*
G37*
G36*
X149450000Y-63250000D02*
G01*
X148450000Y-63250000D01*
X148450000Y-62250000D01*
X149450000Y-62250000D01*
X149450000Y-63250000D01*
G37*
%TO.C,D9*%
X85537500Y-87870000D02*
X84437500Y-87870000D01*
X84437500Y-87870000D02*
X84437500Y-86770000D01*
X84437500Y-86770000D02*
X85537500Y-86770000D01*
X85537500Y-86770000D02*
X85537500Y-87870000D01*
G36*
X85537500Y-87870000D02*
G01*
X84437500Y-87870000D01*
X84437500Y-86770000D01*
X85537500Y-86770000D01*
X85537500Y-87870000D01*
G37*
X85537500Y-87870000D02*
X84437500Y-87870000D01*
X84437500Y-86770000D01*
X85537500Y-86770000D01*
X85537500Y-87870000D01*
X82737500Y-87870000D02*
X81637500Y-87870000D01*
X81637500Y-87870000D02*
X81637500Y-86770000D01*
X81637500Y-86770000D02*
X82737500Y-86770000D01*
X82737500Y-86770000D02*
X82737500Y-87870000D01*
G36*
X82737500Y-87870000D02*
G01*
X81637500Y-87870000D01*
X81637500Y-86770000D01*
X82737500Y-86770000D01*
X82737500Y-87870000D01*
G37*
X82737500Y-87870000D02*
X81637500Y-87870000D01*
X81637500Y-86770000D01*
X82737500Y-86770000D01*
X82737500Y-87870000D01*
%TD*%
D12*
%TO.C,Q2*%
X74830000Y-82265000D03*
D13*
X75600000Y-82025000D03*
D12*
X74120000Y-82265000D03*
D13*
X75600000Y-80725000D03*
X75600000Y-82675000D03*
X75600000Y-81375000D03*
D12*
X74830000Y-81135000D03*
X74120000Y-81135000D03*
D14*
X72600000Y-80725000D03*
D13*
X72600000Y-81375000D03*
D14*
X72600000Y-82025000D03*
X72600000Y-82675000D03*
%TD*%
D15*
%TO.C,R48*%
X61762500Y-91800000D03*
X55837500Y-91800000D03*
%TD*%
D16*
%TO.C,D17*%
X40000000Y-49300000D03*
X36000000Y-49300000D03*
%TD*%
D17*
%TO.C,R44*%
X35200000Y-90525000D03*
X35200000Y-88975000D03*
%TD*%
D18*
%TO.C,C67*%
X119200000Y-95125000D03*
X119200000Y-92000000D03*
%TD*%
D19*
%TO.C,C74*%
X116600000Y-80432500D03*
X116600000Y-81567500D03*
%TD*%
D20*
%TO.C,R6*%
X159767500Y-71150000D03*
X158632500Y-71150000D03*
%TD*%
D21*
%TO.C,Q1*%
X155125000Y-79287500D03*
X153225000Y-79287500D03*
X154175000Y-81162500D03*
%TD*%
D22*
%TO.C,R13*%
X151582500Y-85850000D03*
X152717500Y-85850000D03*
%TD*%
D19*
%TO.C,C25*%
X153150000Y-73332500D03*
X153150000Y-74467500D03*
%TD*%
D23*
%TO.C,C1*%
X131220000Y-58900000D03*
X132180000Y-58900000D03*
%TD*%
D24*
%TO.C,C31*%
X82425000Y-85350000D03*
X83975000Y-85350000D03*
%TD*%
D20*
%TO.C,R14*%
X143047500Y-60200000D03*
X141912500Y-60200000D03*
%TD*%
D25*
%TO.C,C24*%
X165700000Y-67930000D03*
X165700000Y-66970000D03*
%TD*%
%TO.C,C10*%
X141900000Y-66225000D03*
X141900000Y-65265000D03*
%TD*%
D19*
%TO.C,R40*%
X77800000Y-83232500D03*
X77800000Y-84367500D03*
%TD*%
D22*
%TO.C,C62*%
X114332500Y-88250000D03*
X115467500Y-88250000D03*
%TD*%
D26*
%TO.C,R47*%
X61500000Y-95467500D03*
X61500000Y-94332500D03*
%TD*%
D27*
%TO.C,Q10*%
X79687500Y-76300000D03*
X79687500Y-74400000D03*
X77812500Y-75350000D03*
%TD*%
D28*
%TO.C,R95*%
X87512500Y-71675000D03*
X89337500Y-71675000D03*
%TD*%
D24*
%TO.C,R32*%
X58125000Y-48500000D03*
X59675000Y-48500000D03*
%TD*%
D22*
%TO.C,C34*%
X83582500Y-89150000D03*
X84717500Y-89150000D03*
%TD*%
D26*
%TO.C,R79*%
X106500000Y-79267500D03*
X106500000Y-78132500D03*
%TD*%
D29*
%TO.C,R101*%
X89225000Y-83752500D03*
X89225000Y-84947500D03*
%TD*%
D12*
%TO.C,Q7*%
X45480000Y-49890000D03*
D13*
X44000000Y-49000000D03*
X44000000Y-50300000D03*
D12*
X44770000Y-49890000D03*
X44770000Y-48760000D03*
D13*
X44000000Y-49650000D03*
D12*
X45480000Y-48760000D03*
D13*
X44000000Y-48350000D03*
X47000000Y-50300000D03*
X47000000Y-49650000D03*
D30*
X47000000Y-49000000D03*
X47000000Y-48350000D03*
%TD*%
D31*
%TO.C,C39*%
X59180000Y-96450000D03*
X58220000Y-96450000D03*
%TD*%
D25*
%TO.C,C11*%
X145400000Y-59980000D03*
X145400000Y-59020000D03*
%TD*%
D20*
%TO.C,C52*%
X59067500Y-49800000D03*
X57932500Y-49800000D03*
%TD*%
D32*
%TO.C,U3*%
X116595000Y-65975000D03*
X117865000Y-65975000D03*
X119135000Y-65975000D03*
X120405000Y-65975000D03*
X120405000Y-61025000D03*
X119135000Y-61025000D03*
X117865000Y-61025000D03*
X116595000Y-61025000D03*
%TD*%
D33*
%TO.C,R53*%
X62067500Y-72800000D03*
X67992500Y-72800000D03*
%TD*%
D34*
%TO.C,C40*%
X54600000Y-85775000D03*
X54600000Y-88725000D03*
%TD*%
D22*
%TO.C,R42*%
X65682500Y-90650000D03*
X66817500Y-90650000D03*
%TD*%
D35*
%TO.C,C76*%
X109860000Y-70637500D03*
X109860000Y-73762500D03*
%TD*%
D36*
%TO.C,R100*%
X83750000Y-80462500D03*
X83750000Y-78637500D03*
%TD*%
D37*
%TO.C,C23*%
X162537500Y-67900000D03*
X164262500Y-67900000D03*
%TD*%
D20*
%TO.C,R2*%
X129937500Y-55650000D03*
X128802500Y-55650000D03*
%TD*%
D29*
%TO.C,R76*%
X116700000Y-85002500D03*
X116700000Y-86197500D03*
%TD*%
D38*
%TO.C,C13*%
X154450000Y-70220000D03*
X154450000Y-71180000D03*
%TD*%
D26*
%TO.C,R18*%
X152000000Y-58385000D03*
X152000000Y-57250000D03*
%TD*%
D20*
%TO.C,R43*%
X36167500Y-51700000D03*
X35032500Y-51700000D03*
%TD*%
D26*
%TO.C,R51*%
X55800000Y-95467500D03*
X55800000Y-94332500D03*
%TD*%
D20*
%TO.C,R88*%
X92667500Y-58100000D03*
X91532500Y-58100000D03*
%TD*%
D39*
%TO.C,JP3*%
X177450000Y-93850000D03*
X177450000Y-91850000D03*
%TD*%
D40*
%TO.C,R8*%
X163875000Y-62850000D03*
X165525000Y-62850000D03*
%TD*%
D23*
%TO.C,C14*%
X154500000Y-60680000D03*
X155460000Y-60680000D03*
%TD*%
D38*
%TO.C,C2*%
X133500000Y-58720000D03*
X133500000Y-59680000D03*
%TD*%
D17*
%TO.C,C82*%
X93725000Y-78350000D03*
X93725000Y-76800000D03*
%TD*%
D31*
%TO.C,C8*%
X123880000Y-52250000D03*
X122920000Y-52250000D03*
%TD*%
D17*
%TO.C,C73*%
X113825000Y-76400000D03*
X113825000Y-74850000D03*
%TD*%
D26*
%TO.C,R50*%
X45900000Y-79017500D03*
X45900000Y-77882500D03*
%TD*%
%TO.C,R64*%
X45050000Y-66567500D03*
X45050000Y-65432500D03*
%TD*%
D23*
%TO.C,C6*%
X125420000Y-53500000D03*
X126380000Y-53500000D03*
%TD*%
D22*
%TO.C,C42*%
X45032500Y-80180000D03*
X46167500Y-80180000D03*
%TD*%
D25*
%TO.C,C60*%
X107550000Y-79080000D03*
X107550000Y-78120000D03*
%TD*%
%TO.C,C22*%
X152800000Y-83880000D03*
X152800000Y-82920000D03*
%TD*%
D41*
%TO.C,U11*%
X52550000Y-68845000D03*
X52550000Y-70115000D03*
X52550000Y-71385000D03*
X52550000Y-72655000D03*
X57500000Y-72655000D03*
X57500000Y-71385000D03*
X57500000Y-70115000D03*
X57500000Y-68845000D03*
%TD*%
D42*
%TO.C,J15*%
X83750000Y-90915000D03*
X84550000Y-90915000D03*
D43*
X85750000Y-90915000D03*
X86750000Y-90915000D03*
X87250000Y-90915000D03*
X88250000Y-90915000D03*
D42*
X89450000Y-90915000D03*
X90250000Y-90915000D03*
X90250000Y-90915000D03*
X89450000Y-90915000D03*
D43*
X88750000Y-90915000D03*
X87750000Y-90915000D03*
X86250000Y-90915000D03*
X85250000Y-90915000D03*
D42*
X84550000Y-90915000D03*
X83750000Y-90915000D03*
%TD*%
D44*
%TO.C,U10*%
X46599499Y-86050000D03*
D45*
X45443499Y-85550001D03*
D46*
X45443499Y-85049999D03*
D45*
X45443499Y-84550000D03*
D47*
X45938499Y-84025000D03*
D48*
X45748499Y-83550001D03*
D49*
X46050000Y-82662501D03*
D50*
X45650001Y-82662501D03*
X45249999Y-82662501D03*
D49*
X44850000Y-82662501D03*
D51*
X44470000Y-82655000D03*
D52*
X44100000Y-83675000D03*
D53*
X44050000Y-83270000D03*
D54*
X43606750Y-82675001D03*
D55*
X43220000Y-82652501D03*
D56*
X42662501Y-83250000D03*
X42662501Y-83649999D03*
D57*
X42662501Y-84050001D03*
X42662501Y-84450000D03*
X42662501Y-84850000D03*
D56*
X42662501Y-85249999D03*
D57*
X42662501Y-85650001D03*
X42662501Y-86050000D03*
D49*
X43250000Y-86637499D03*
D50*
X43649999Y-86637499D03*
X44050001Y-86637499D03*
X44450000Y-86637499D03*
X44850000Y-86637499D03*
X45249999Y-86637499D03*
X45650001Y-86637499D03*
D49*
X46050000Y-86637499D03*
%TD*%
D28*
%TO.C,R26*%
X136287500Y-61800000D03*
X138112500Y-61800000D03*
%TD*%
D58*
%TO.C,U1*%
X131440000Y-55800000D03*
X131440000Y-56300000D03*
X131440000Y-56800000D03*
X131440000Y-57300000D03*
D59*
X132100000Y-57460000D03*
X132600000Y-57460000D03*
X133100000Y-57460000D03*
D60*
X133760000Y-57300000D03*
X133760000Y-56800000D03*
X133760000Y-56300000D03*
X133760000Y-55800000D03*
D61*
X133100000Y-55640000D03*
X132600000Y-55640000D03*
X132100000Y-55640000D03*
%TD*%
D62*
%TO.C,C27*%
X70775000Y-79550000D03*
X70775000Y-81100000D03*
%TD*%
D63*
%TO.C,R58*%
X38112500Y-81600000D03*
X36287500Y-81600000D03*
%TD*%
D40*
%TO.C,R10*%
X159775000Y-54700000D03*
X161425000Y-54700000D03*
%TD*%
D64*
%TO.C,R78*%
X107100000Y-85697500D03*
X107100000Y-84502500D03*
%TD*%
D65*
%TO.C,C49*%
X40625000Y-78900000D03*
X43575000Y-78900000D03*
%TD*%
D21*
%TO.C,Q9*%
X93750000Y-49057500D03*
X91850000Y-49057500D03*
X92800000Y-50932500D03*
%TD*%
D66*
%TO.C,U6*%
X144495000Y-56400000D03*
X145765000Y-56400000D03*
X147035000Y-56400000D03*
X148305000Y-56400000D03*
X148305000Y-49200000D03*
X147035000Y-49200000D03*
X145765000Y-49200000D03*
X144495000Y-49200000D03*
%TD*%
D67*
%TO.C,R7*%
X166125000Y-60300000D03*
X164475000Y-60300000D03*
%TD*%
D19*
%TO.C,C28*%
X175900000Y-92265000D03*
X175900000Y-93400000D03*
%TD*%
D68*
%TO.C,C38*%
X55325000Y-76990000D03*
X52375000Y-76990000D03*
%TD*%
D69*
%TO.C,D12*%
X34600000Y-81887500D03*
X34600000Y-80312500D03*
%TD*%
D23*
%TO.C,C5*%
X116195000Y-58950000D03*
X117155000Y-58950000D03*
%TD*%
D20*
%TO.C,C53*%
X42167500Y-80600000D03*
X41032500Y-80600000D03*
%TD*%
D70*
%TO.C,R28*%
X180700000Y-55550000D03*
X180700000Y-53900000D03*
%TD*%
D71*
%TO.C,C48*%
X44400000Y-92712500D03*
X44400000Y-90987500D03*
%TD*%
D72*
%TO.C,CONN2*%
X132800000Y-52312500D03*
X131800000Y-52312500D03*
D73*
X130800000Y-52312500D03*
X129800000Y-52312500D03*
D74*
X134100000Y-48412500D03*
X128500000Y-48412500D03*
%TD*%
D22*
%TO.C,R15*%
X141532500Y-61200000D03*
X142667500Y-61200000D03*
%TD*%
D75*
%TO.C,U9*%
X89650000Y-86265000D03*
X89150000Y-86265000D03*
D76*
X88650000Y-86265000D03*
D75*
X88150000Y-86265000D03*
X87650000Y-86265000D03*
X87650000Y-87035000D03*
X88150000Y-87035000D03*
D76*
X88650000Y-87035000D03*
D75*
X89150000Y-87035000D03*
X89650000Y-87035000D03*
%TD*%
D23*
%TO.C,C3*%
X127370000Y-61450000D03*
X128330000Y-61450000D03*
%TD*%
D18*
%TO.C,C63*%
X109450000Y-95162500D03*
X109450000Y-92037500D03*
%TD*%
D20*
%TO.C,R68*%
X42417500Y-68250000D03*
X41282500Y-68250000D03*
%TD*%
D22*
%TO.C,R3*%
X123082500Y-58100000D03*
X124217500Y-58100000D03*
%TD*%
D20*
%TO.C,R71*%
X49567500Y-49200000D03*
X48432500Y-49200000D03*
%TD*%
D22*
%TO.C,R93*%
X86232500Y-75650000D03*
X87367500Y-75650000D03*
%TD*%
%TO.C,R62*%
X37982500Y-89800000D03*
X39117500Y-89800000D03*
%TD*%
D12*
%TO.C,Q6*%
X43580000Y-53835000D03*
X43580000Y-54965000D03*
X42870000Y-53835000D03*
D13*
X42100000Y-55375000D03*
X42100000Y-54725000D03*
X42100000Y-53425000D03*
D12*
X42870000Y-54965000D03*
D13*
X42100000Y-54075000D03*
X45100000Y-55375000D03*
X45100000Y-54725000D03*
D30*
X45100000Y-54075000D03*
X45100000Y-53425000D03*
%TD*%
D26*
%TO.C,C35*%
X47820000Y-78407500D03*
X47820000Y-77272500D03*
%TD*%
D20*
%TO.C,C70*%
X111650000Y-78400000D03*
X110515000Y-78400000D03*
%TD*%
D77*
%TO.C,D2*%
X160990000Y-56395000D03*
X160990000Y-59895000D03*
%TD*%
D22*
%TO.C,R30*%
X135532500Y-60500000D03*
X136667500Y-60500000D03*
%TD*%
D78*
%TO.C,C69*%
X122462500Y-79250000D03*
X119337500Y-79250000D03*
%TD*%
D20*
%TO.C,R4*%
X123417500Y-56250000D03*
X122282500Y-56250000D03*
%TD*%
D26*
%TO.C,R75*%
X119100000Y-87367500D03*
X119100000Y-86232500D03*
%TD*%
%TO.C,R54*%
X41790000Y-94097500D03*
X41790000Y-92962500D03*
%TD*%
D79*
%TO.C,SW4*%
X31230000Y-81450000D03*
X29020000Y-88750000D03*
X31230000Y-88750000D03*
X29020000Y-81450000D03*
D80*
X31880000Y-82850000D03*
D81*
X31880000Y-85850000D03*
X31880000Y-87350000D03*
%TD*%
D19*
%TO.C,R59*%
X45800000Y-90782500D03*
X45800000Y-91917500D03*
%TD*%
D82*
%TO.C,U8*%
X39645000Y-65150000D03*
X40915000Y-65150000D03*
X42185000Y-65150000D03*
D83*
X43455000Y-65150000D03*
D84*
X43455000Y-59450000D03*
X42185000Y-59450000D03*
X40915000Y-59450000D03*
X39645000Y-59450000D03*
%TD*%
D70*
%TO.C,R29*%
X114750000Y-60850000D03*
X114750000Y-59200000D03*
%TD*%
D28*
%TO.C,R90*%
X81787500Y-74075000D03*
X83612500Y-74075000D03*
%TD*%
D18*
%TO.C,C68*%
X99500000Y-82212500D03*
X99500000Y-79087500D03*
%TD*%
D26*
%TO.C,C44*%
X58150000Y-95417500D03*
X58150000Y-94282500D03*
%TD*%
D40*
%TO.C,R20*%
X151575000Y-76950000D03*
X153225000Y-76950000D03*
%TD*%
D85*
%TO.C,R96*%
X92775000Y-74975000D03*
X91225000Y-74975000D03*
%TD*%
D20*
%TO.C,R22*%
X137667500Y-59400000D03*
X136532500Y-59400000D03*
%TD*%
D34*
%TO.C,C41*%
X51300000Y-85775000D03*
X51300000Y-88725000D03*
%TD*%
D86*
%TO.C,U12*%
X108650000Y-81954999D03*
X108650000Y-82605002D03*
X108650000Y-83255000D03*
X108650000Y-83903600D03*
X108650000Y-84554999D03*
X108650000Y-85203600D03*
D87*
X109025000Y-86880000D03*
X109673601Y-86880000D03*
X110325000Y-86880000D03*
D88*
X110973601Y-86874600D03*
D89*
X111625000Y-86874600D03*
D87*
X112275001Y-86880000D03*
D88*
X112924999Y-86874600D03*
D87*
X113573600Y-86880000D03*
X114224999Y-86880000D03*
X114873600Y-86880000D03*
D86*
X115250000Y-85205001D03*
X115250000Y-84554999D03*
X115250000Y-83903600D03*
D90*
X115250000Y-83255000D03*
D86*
X115250000Y-82605002D03*
D90*
X115250000Y-81955002D03*
D87*
X114875000Y-80280000D03*
X114224999Y-80280000D03*
X113575001Y-80280000D03*
X112924999Y-80280000D03*
D91*
X112286800Y-80280000D03*
D89*
X111625000Y-80285400D03*
D87*
X110973601Y-80280000D03*
D92*
X110324999Y-80580000D03*
X109673603Y-80580000D03*
X109023600Y-80580000D03*
%TD*%
D24*
%TO.C,R31*%
X154325000Y-84000000D03*
X155875000Y-84000000D03*
%TD*%
D20*
%TO.C,R84*%
X117717500Y-77200000D03*
X116582500Y-77200000D03*
%TD*%
D93*
%TO.C,Q5*%
X136462500Y-74750000D03*
X136462500Y-76650000D03*
X138337500Y-75700000D03*
%TD*%
D35*
%TO.C,C72*%
X103000000Y-70637500D03*
X103000000Y-73762500D03*
%TD*%
D94*
%TO.C,D4*%
X136900000Y-65750000D03*
X140400000Y-65750000D03*
%TD*%
D17*
%TO.C,C7*%
X125800000Y-56575000D03*
X125800000Y-55025000D03*
%TD*%
D22*
%TO.C,R12*%
X142932500Y-58075000D03*
X144067500Y-58075000D03*
%TD*%
D36*
%TO.C,R98*%
X75900000Y-76812500D03*
X75900000Y-74987500D03*
%TD*%
D26*
%TO.C,R38*%
X153200000Y-72017500D03*
X153200000Y-70882500D03*
%TD*%
D95*
%TO.C,C37*%
X54600000Y-81125000D03*
X54600000Y-84075000D03*
%TD*%
D96*
%TO.C,Y2*%
X151100000Y-71800000D03*
X148200000Y-71800000D03*
X148200000Y-74100000D03*
X151100000Y-74100000D03*
%TD*%
D70*
%TO.C,R9*%
X162950000Y-57025000D03*
X162950000Y-55375000D03*
%TD*%
D97*
%TO.C,D10*%
X36937500Y-78600000D03*
X35362500Y-78600000D03*
%TD*%
D22*
%TO.C,C29*%
X86415000Y-88600000D03*
X87550000Y-88600000D03*
%TD*%
D85*
%TO.C,R23*%
X156275000Y-77400000D03*
X154725000Y-77400000D03*
%TD*%
D22*
%TO.C,R1*%
X133132500Y-54250000D03*
X134267500Y-54250000D03*
%TD*%
D35*
%TO.C,C77*%
X106450000Y-70637500D03*
X106450000Y-73762500D03*
%TD*%
D98*
%TO.C,R21*%
X139900000Y-59987500D03*
X139900000Y-61812500D03*
%TD*%
D99*
%TO.C,Q8*%
X92625000Y-56945000D03*
X93275000Y-56945000D03*
X93925000Y-56945000D03*
X91975000Y-56945000D03*
D100*
X93515000Y-55465000D03*
X92385000Y-56175000D03*
X93515000Y-56175000D03*
X92385000Y-55465000D03*
D99*
X93925000Y-53945000D03*
X93275000Y-53945000D03*
D101*
X92625000Y-53945000D03*
X91975000Y-53945000D03*
%TD*%
D31*
%TO.C,C20*%
X152980000Y-55200000D03*
X152020000Y-55200000D03*
%TD*%
D69*
%TO.C,D21*%
X73200000Y-75687500D03*
X73200000Y-74112500D03*
%TD*%
D18*
%TO.C,C71*%
X102950000Y-82212500D03*
X102950000Y-79087500D03*
%TD*%
D26*
%TO.C,R77*%
X106050000Y-87767500D03*
X106050000Y-86632500D03*
%TD*%
D102*
%TO.C,C51*%
X140212500Y-82450000D03*
X138487500Y-82450000D03*
%TD*%
D20*
%TO.C,C30*%
X91427500Y-89000000D03*
X90292500Y-89000000D03*
%TD*%
D103*
%TO.C,D3*%
X158400000Y-59880000D03*
X158400000Y-56380000D03*
%TD*%
D20*
%TO.C,C43*%
X48317500Y-88200000D03*
X47182500Y-88200000D03*
%TD*%
D17*
%TO.C,C18*%
X156090000Y-71280000D03*
X156090000Y-69730000D03*
%TD*%
D20*
%TO.C,R65*%
X45492500Y-68250000D03*
X44357500Y-68250000D03*
%TD*%
D19*
%TO.C,R27*%
X134000000Y-74982500D03*
X134000000Y-76117500D03*
%TD*%
D20*
%TO.C,C61*%
X109667500Y-88200000D03*
X108532500Y-88200000D03*
%TD*%
D70*
%TO.C,R17*%
X142500000Y-76025000D03*
X142500000Y-74375000D03*
%TD*%
D26*
%TO.C,C45*%
X59300000Y-95417500D03*
X59300000Y-94282500D03*
%TD*%
D104*
%TO.C,R87*%
X110637500Y-89900000D03*
X113562500Y-89900000D03*
%TD*%
D105*
%TO.C,C36*%
X51300000Y-84075000D03*
X51300000Y-81125000D03*
%TD*%
D26*
%TO.C,R74*%
X119050000Y-83810000D03*
X119050000Y-82675000D03*
%TD*%
D18*
%TO.C,C66*%
X105950000Y-95162500D03*
X105950000Y-92037500D03*
%TD*%
D64*
%TO.C,R80*%
X105200000Y-78272500D03*
X105200000Y-77077500D03*
%TD*%
D26*
%TO.C,R66*%
X140500000Y-79467500D03*
X140500000Y-78332500D03*
%TD*%
D106*
%TO.C,C47*%
X47300000Y-91087500D03*
X47300000Y-92812500D03*
%TD*%
D107*
%TO.C,C46*%
X39360000Y-86315000D03*
X39360000Y-83365000D03*
%TD*%
D67*
%TO.C,R11*%
X135025000Y-64750000D03*
X133375000Y-64750000D03*
%TD*%
D25*
%TO.C,C9*%
X164150000Y-85480000D03*
X164150000Y-84520000D03*
%TD*%
D19*
%TO.C,R19*%
X150900000Y-57332500D03*
X150900000Y-58467500D03*
%TD*%
D63*
%TO.C,R82*%
X103312500Y-76300000D03*
X101487500Y-76300000D03*
%TD*%
D22*
%TO.C,R81*%
X106307500Y-77050000D03*
X107442500Y-77050000D03*
%TD*%
D20*
%TO.C,R63*%
X135967500Y-83650000D03*
X134832500Y-83650000D03*
%TD*%
D85*
%TO.C,R61*%
X45375000Y-89250000D03*
X43825000Y-89250000D03*
%TD*%
D19*
%TO.C,R24*%
X133000000Y-61632500D03*
X133000000Y-62767500D03*
%TD*%
D97*
%TO.C,D16*%
X52687500Y-50300000D03*
X51112500Y-50300000D03*
%TD*%
D62*
%TO.C,R99*%
X81450000Y-77950000D03*
X81450000Y-79500000D03*
%TD*%
D104*
%TO.C,R94*%
X86637500Y-73750000D03*
X89562500Y-73750000D03*
%TD*%
D20*
%TO.C,R67*%
X47117500Y-69325000D03*
X45982500Y-69325000D03*
%TD*%
%TO.C,R69*%
X50667500Y-48100000D03*
X49532500Y-48100000D03*
%TD*%
%TO.C,R83*%
X120217500Y-76850000D03*
X119082500Y-76850000D03*
%TD*%
%TO.C,R34*%
X161017500Y-67100000D03*
X159882500Y-67100000D03*
%TD*%
D26*
%TO.C,R57*%
X41460000Y-89177500D03*
X41460000Y-88042500D03*
%TD*%
D108*
%TO.C,IC2*%
X89450000Y-77825000D03*
X88950000Y-77825000D03*
X88450000Y-77825000D03*
X87950000Y-77825000D03*
X87450000Y-77825000D03*
X86950000Y-77825000D03*
D109*
X86200000Y-78575000D03*
X86200000Y-79075000D03*
X86200000Y-79575000D03*
X86200000Y-80075000D03*
X86200000Y-80575000D03*
X86200000Y-81075000D03*
D108*
X86950000Y-81825000D03*
X87450000Y-81825000D03*
X87950000Y-81825000D03*
X88450000Y-81825000D03*
X88950000Y-81825000D03*
X89450000Y-81825000D03*
D109*
X90200000Y-81075000D03*
X90200000Y-80575000D03*
X90200000Y-80075000D03*
X90200000Y-79575000D03*
X90200000Y-79075000D03*
X90200000Y-78575000D03*
D110*
X88200000Y-79825000D03*
%TD*%
D24*
%TO.C,R60*%
X38990000Y-93190000D03*
X40540000Y-93190000D03*
%TD*%
D19*
%TO.C,C32*%
X80700000Y-83182500D03*
X80700000Y-84317500D03*
%TD*%
D22*
%TO.C,R73*%
X110032500Y-75400000D03*
X111167500Y-75400000D03*
%TD*%
D19*
%TO.C,C75*%
X106950000Y-81382500D03*
X106950000Y-82517500D03*
%TD*%
D23*
%TO.C,C12*%
X154720000Y-55600000D03*
X155680000Y-55600000D03*
%TD*%
D102*
%TO.C,C78*%
X166312500Y-82900000D03*
X164587500Y-82900000D03*
%TD*%
D38*
%TO.C,C4*%
X128250000Y-59520000D03*
X128250000Y-60480000D03*
%TD*%
D111*
%TO.C,CONN1*%
X133112500Y-67100000D03*
D112*
X133112500Y-68100000D03*
D111*
X133112500Y-69100000D03*
X133112500Y-70100000D03*
D113*
X129212500Y-65800000D03*
X129212500Y-71400000D03*
%TD*%
D16*
%TO.C,D1*%
X170200000Y-85500000D03*
X166200000Y-85500000D03*
%TD*%
D21*
%TO.C,Q3*%
X56450000Y-48787500D03*
X54550000Y-48787500D03*
X55500000Y-50662500D03*
%TD*%
D22*
%TO.C,R56*%
X38382500Y-87800000D03*
X39517500Y-87800000D03*
%TD*%
%TO.C,R45*%
X35982500Y-80000000D03*
X37117500Y-80000000D03*
%TD*%
%TO.C,R37*%
X133732500Y-71400000D03*
X134867500Y-71400000D03*
%TD*%
D114*
%TO.C,U2*%
X126650000Y-58750000D03*
X126150000Y-58750000D03*
D115*
X125637500Y-59012500D03*
D116*
X125637500Y-59512500D03*
X125637500Y-60012500D03*
D114*
X126150000Y-60275000D03*
X126650000Y-60275000D03*
D115*
X127162500Y-60012500D03*
X127162500Y-59512500D03*
X127162500Y-59012500D03*
%TD*%
D117*
%TO.C,Y1*%
X119075000Y-68400000D03*
X116575000Y-68400000D03*
%TD*%
D102*
%TO.C,C50*%
X43587500Y-66975000D03*
X41862500Y-66975000D03*
%TD*%
D118*
%TO.C,U5*%
X124450001Y-54752001D03*
X124450001Y-54252000D03*
X124450001Y-53752000D03*
X124450001Y-53251999D03*
D119*
X123950000Y-53251999D03*
X123450000Y-53251999D03*
D118*
X122949999Y-53251999D03*
X122949999Y-53752000D03*
X122949999Y-54252000D03*
X122949999Y-54752001D03*
D119*
X123450000Y-54752001D03*
X123950000Y-54752001D03*
%TD*%
D12*
%TO.C,Q4*%
X136770000Y-79035000D03*
X137480000Y-80165000D03*
X137480000Y-79035000D03*
D13*
X136000000Y-79925000D03*
X136000000Y-79275000D03*
D12*
X136770000Y-80165000D03*
D13*
X136000000Y-78625000D03*
X136000000Y-80575000D03*
X139000000Y-80575000D03*
X139000000Y-79925000D03*
X139000000Y-79275000D03*
D30*
X139000000Y-78625000D03*
%TD*%
D22*
%TO.C,R49*%
X46782500Y-75850000D03*
X47917500Y-75850000D03*
%TD*%
D38*
%TO.C,C80*%
X92425000Y-79320000D03*
X92425000Y-80280000D03*
%TD*%
D62*
%TO.C,C33*%
X79250000Y-82625000D03*
X79250000Y-84175000D03*
%TD*%
D85*
%TO.C,C19*%
X156505000Y-59410000D03*
X154955000Y-59410000D03*
%TD*%
D38*
%TO.C,C15*%
X160700000Y-64820000D03*
X160700000Y-65780000D03*
%TD*%
D29*
%TO.C,R102*%
X88200000Y-83752500D03*
X88200000Y-84947500D03*
%TD*%
D26*
%TO.C,R55*%
X42830000Y-94767500D03*
X42830000Y-93632500D03*
%TD*%
D17*
%TO.C,C17*%
X142425000Y-49950000D03*
X142425000Y-48400000D03*
%TD*%
D25*
%TO.C,C59*%
X107150000Y-88030000D03*
X107150000Y-87070000D03*
%TD*%
D120*
%TO.C,U7*%
X141100000Y-69085000D03*
X141100000Y-68315000D03*
X141600000Y-69085000D03*
X141600000Y-68315000D03*
D121*
X142100000Y-69080000D03*
D120*
X142600000Y-68315000D03*
X142600000Y-69085000D03*
D122*
X143100000Y-69085000D03*
D120*
X143100000Y-68315000D03*
X142100000Y-68315000D03*
%TD*%
D20*
%TO.C,R86*%
X113917500Y-78500000D03*
X112782500Y-78500000D03*
%TD*%
%TO.C,R89*%
X92967500Y-52600000D03*
X91832500Y-52600000D03*
%TD*%
D26*
%TO.C,R16*%
X151750000Y-81117500D03*
X151750000Y-79982500D03*
%TD*%
D17*
%TO.C,C79*%
X91925000Y-78100000D03*
X91925000Y-76550000D03*
%TD*%
D123*
%TO.C,SW3*%
X140500000Y-48425000D03*
X140500000Y-56375000D03*
X136100000Y-48425000D03*
X136100000Y-56375000D03*
%TD*%
D23*
%TO.C,C65*%
X55145000Y-74075000D03*
X56105000Y-74075000D03*
%TD*%
D124*
%TO.C,D7*%
X71120000Y-85450000D03*
X75120000Y-85450000D03*
%TD*%
D31*
%TO.C,C21*%
X155070000Y-58020000D03*
X154110000Y-58020000D03*
%TD*%
D125*
%TO.C,D14*%
X50000000Y-78800000D03*
X50000000Y-74400000D03*
%TD*%
D126*
%TO.C,D20*%
X89100000Y-59400000D03*
X90675000Y-59400000D03*
%TD*%
D25*
%TO.C,C16*%
X142925000Y-52130000D03*
X142925000Y-51170000D03*
%TD*%
D127*
%TO.C,IC1*%
X146300000Y-60950000D03*
D128*
X146300000Y-61350000D03*
X146300000Y-61750000D03*
X146300000Y-62150000D03*
X146300000Y-62550000D03*
X146300000Y-62950000D03*
X146300000Y-63350000D03*
X146300000Y-63750000D03*
X146300000Y-64150000D03*
X146300000Y-64550000D03*
X146300000Y-64950000D03*
X146300000Y-65350000D03*
X146300000Y-65750000D03*
D127*
X146300000Y-66150000D03*
D129*
X147150000Y-67000000D03*
D130*
X147550000Y-67000000D03*
X147950000Y-67000000D03*
X148350000Y-67000000D03*
X148750000Y-67000000D03*
X149150000Y-67000000D03*
X149550000Y-67000000D03*
X149950000Y-67000000D03*
X150350000Y-67000000D03*
X150750000Y-67000000D03*
X151150000Y-67000000D03*
X151550000Y-67000000D03*
X151950000Y-67000000D03*
X152350000Y-67000000D03*
D128*
X153200000Y-66150000D03*
X153200000Y-65750000D03*
X153200000Y-65350000D03*
X153200000Y-64950000D03*
X153200000Y-64550000D03*
X153200000Y-64150000D03*
X153200000Y-63750000D03*
X153200000Y-63350000D03*
X153200000Y-62950000D03*
X153200000Y-62550000D03*
X153200000Y-62150000D03*
X153200000Y-61750000D03*
X153200000Y-61350000D03*
X153200000Y-60950000D03*
D131*
X152350000Y-60100000D03*
X151950000Y-60100000D03*
D130*
X151550000Y-60100000D03*
X151150000Y-60100000D03*
X150750000Y-60100000D03*
X150350000Y-60100000D03*
X149950000Y-60100000D03*
X149550000Y-60100000D03*
X149150000Y-60100000D03*
X148750000Y-60100000D03*
X148350000Y-60100000D03*
X147950000Y-60100000D03*
X147550000Y-60100000D03*
D131*
X147150000Y-60100000D03*
%TD*%
D25*
%TO.C,C57*%
X118050000Y-87080000D03*
X118050000Y-86120000D03*
%TD*%
D132*
%TO.C,SW2*%
X145350000Y-84775000D03*
X145350000Y-76825000D03*
X149700000Y-76825000D03*
X149700000Y-84775000D03*
%TD*%
%TO.C,SW1*%
X158050000Y-76825000D03*
X158100000Y-84775000D03*
X162300000Y-76825000D03*
X162300000Y-84800000D03*
%TD*%
D26*
%TO.C,R92*%
X85200000Y-74242500D03*
X85200000Y-73107500D03*
%TD*%
D69*
%TO.C,D15*%
X133300000Y-83437500D03*
X133300000Y-81862500D03*
%TD*%
D67*
%TO.C,R25*%
X133675000Y-73450000D03*
X132025000Y-73450000D03*
%TD*%
D20*
%TO.C,R39*%
X162517500Y-71550000D03*
X161382500Y-71550000D03*
%TD*%
D22*
%TO.C,R72*%
X48432500Y-50300000D03*
X49567500Y-50300000D03*
%TD*%
%TO.C,R5*%
X142732500Y-59100000D03*
X143867500Y-59100000D03*
%TD*%
D26*
%TO.C,R97*%
X91000000Y-73667500D03*
X91000000Y-72532500D03*
%TD*%
D133*
%TO.C,J12*%
X176450000Y-60995000D03*
X176450000Y-62095000D03*
D134*
X176450000Y-63195000D03*
X176450000Y-64295000D03*
X176450000Y-65395000D03*
X176450000Y-66495000D03*
D133*
X176450000Y-67595000D03*
X176450000Y-68695000D03*
D135*
X179050000Y-71075000D03*
X170750000Y-71075000D03*
X170750000Y-57325000D03*
X179050000Y-57325000D03*
%TD*%
D26*
%TO.C,R85*%
X115350000Y-77167500D03*
X115350000Y-76032500D03*
%TD*%
D36*
%TO.C,R35*%
X137900000Y-70200000D03*
X137900000Y-68375000D03*
%TD*%
D136*
%TO.C,L1*%
X63000000Y-87800000D03*
D137*
X63000000Y-76900000D03*
%TD*%
D17*
%TO.C,C55*%
X117800000Y-83775000D03*
X117800000Y-82225000D03*
%TD*%
D19*
%TO.C,R46*%
X33510000Y-86332500D03*
X33510000Y-87467500D03*
%TD*%
D22*
%TO.C,R52*%
X35332500Y-92275000D03*
X36467500Y-92275000D03*
%TD*%
D19*
%TO.C,C26*%
X146200000Y-73200000D03*
X146200000Y-74335000D03*
%TD*%
D22*
%TO.C,R70*%
X45367500Y-51800000D03*
X44232500Y-51800000D03*
%TD*%
D138*
%TO.C,R91*%
X84762500Y-76025000D03*
X81837500Y-76025000D03*
%TD*%
D98*
%TO.C,R33*%
X135200000Y-66425000D03*
X135200000Y-68250000D03*
%TD*%
D75*
%TO.C,U13*%
X156600000Y-86565000D03*
X156100000Y-86565000D03*
D76*
X155600000Y-86565000D03*
D75*
X155100000Y-86565000D03*
D122*
X154600000Y-86565000D03*
D75*
X154600000Y-87335000D03*
X155100000Y-87335000D03*
D76*
X155600000Y-87335000D03*
D75*
X156100000Y-87335000D03*
X156600000Y-87335000D03*
%TD*%
D20*
%TO.C,R36*%
X136067500Y-69600000D03*
X134932500Y-69600000D03*
%TD*%
D38*
%TO.C,C81*%
X91400000Y-79315000D03*
X91400000Y-80275000D03*
%TD*%
D18*
%TO.C,C64*%
X115550000Y-95112500D03*
X115550000Y-91987500D03*
%TD*%
M02*
