M48
; DRILL file {KiCad (6.0.2-0)} date Saturday, June 03, 2023 at 09:04:30 PM
; FORMAT={-:-/ absolute / metric / decimal}
; #@! TF.CreationDate,2023-06-03T21:04:30-06:00
; #@! TF.GenerationSoftware,Kicad,Pcbnew,(6.0.2-0)
; #@! TF.FileFunction,MixedPlating,1,4
FMAT,2
METRIC
; #@! TA.AperFunction,Plated,PTH,ViaDrill
T1C0.300
; #@! TA.AperFunction,Plated,PTH,ViaDrill
T2C0.400
; #@! TA.AperFunction,Plated,PTH,ComponentDrill
T3C0.600
; #@! TA.AperFunction,Plated,PTH,ComponentDrill
T4C0.950
; #@! TA.AperFunction,Plated,PTH,ComponentDrill
T5C1.000
; #@! TA.AperFunction,Plated,PTH,ComponentDrill
T6C1.020
; #@! TA.AperFunction,Plated,PTH,ComponentDrill
T7C1.190
; #@! TA.AperFunction,Plated,PTH,ComponentDrill
T8C1.300
; #@! TA.AperFunction,Plated,PTH,ComponentDrill
T9C1.780
; #@! TA.AperFunction,Plated,PTH,ComponentDrill
T10C3.200
; #@! TA.AperFunction,Plated,PTH,ComponentDrill
T11C4.400
; #@! TA.AperFunction,NonPlated,NPTH,ComponentDrill
T12C0.650
; #@! TA.AperFunction,NonPlated,NPTH,ComponentDrill
T13C0.900
; #@! TA.AperFunction,NonPlated,NPTH,ComponentDrill
T14C2.700
; #@! TA.AperFunction,NonPlated,NPTH,ComponentDrill
T15C3.200
; #@! TA.AperFunction,NonPlated,NPTH,ComponentDrill
T16C8.400
%
G90
G05
T1
X28.75Y-62.8
X30.1Y-53.9
X30.325Y-61.7
X30.95Y-67.3
X33.4Y-80.8
X33.7Y-66.3
X34.0Y-48.1
X34.4Y-53.6
X34.675Y-60.9
X35.5Y-49.5
X35.55Y-65.0
X35.55Y-68.0
X35.8Y-62.5
X36.5Y-49.5
X36.85Y-57.55
X36.9Y-52.4
X37.192Y-89.94
X37.8Y-81.3
X38.2Y-63.275
X38.4Y-50.4
X38.575Y-65.0
X38.6Y-48.3
X38.75Y-58.2
X38.75Y-59.2
X38.75Y-60.2
X38.75Y-61.4
X38.85Y-85.55
X38.9Y-92.0
X39.35Y-79.75
X39.45Y-67.1
X39.6Y-65.8
X39.6Y-77.6
X39.95Y-61.4
X40.0Y-59.2
X40.05Y-58.2
X40.18Y-92.03
X40.2Y-55.8
X40.25Y-64.825
X40.4Y-80.5
X40.4Y-84.69
X40.6Y-49.7
X40.6Y-63.6
X40.6Y-66.1
X40.6Y-77.6
X40.824Y-81.476
X40.95Y-85.8
X41.05Y-61.4
X41.2Y-58.15
X41.2Y-62.6
X41.2Y-66.95
X41.236Y-84.527
X41.25Y-59.2
X41.5Y-57.2
X41.5Y-65.5
X41.8Y-63.6
X41.8Y-81.6
X42.0Y-52.3
X42.15Y-61.4
X42.3Y-64.8
X42.33Y-87.28
X42.5Y-58.15
X42.55Y-59.2
X42.736Y-81.63
X42.8Y-49.2
X42.8Y-53.5
X43.2Y-51.2
X43.25Y-61.4
X43.3Y-48.1
X43.3Y-52.6
X43.425Y-85.4
X43.5Y-50.2
X43.5Y-84.8
X43.7Y-83.9
X43.75Y-58.2
X43.85Y-59.2
X44.004Y-83.35
X44.05Y-61.0
X44.05Y-62.2
X44.05Y-63.6
X44.232Y-51.8
X44.4Y-49.0
X44.6Y-50.1
X44.85Y-59.2
X44.85Y-60.3
X44.85Y-61.6
X44.85Y-62.8
X45.0Y-54.7
X45.011Y-81.05
X45.3Y-48.5
X45.4Y-49.6
X45.42Y-88.201
X45.9Y-90.2
X46.245Y-80.65
X46.4Y-77.2
X46.9Y-52.4
X47.0Y-49.7
X47.0Y-50.9
X47.0Y-93.8
X47.45Y-87.24
X47.65Y-82.9
X47.8Y-50.2
X48.237Y-85.227
X48.525Y-47.8
X48.65Y-51.025
X49.567Y-49.767
X49.6Y-52.35
X49.6Y-94.7
X49.7Y-82.8
X52.7Y-74.85
X53.8Y-77.95
X54.15Y-67.9
X56.0Y-59.5
X56.0Y-64.9
X56.65Y-73.725
X56.9Y-48.875
X59.5Y-56.1
X60.2Y-60.8
X61.25Y-63.45
X62.55Y-84.55
X63.8Y-52.9
X64.25Y-61.35
X66.6Y-89.35
X67.55Y-68.1
X67.65Y-80.1
X68.2Y-84.3
X68.55Y-58.1
X68.55Y-63.4
X70.7Y-82.1
X71.6Y-79.45
X73.25Y-91.35
X74.425Y-78.9
X76.325Y-91.35
X78.35Y-71.951
X78.45Y-88.65
X79.2Y-87.65
X79.3Y-85.15
X80.35Y-87.65
X80.35Y-88.7
X80.425Y-74.675
X80.425Y-79.025
X80.95Y-72.675
X81.6Y-85.175
X83.775Y-78.575
X84.674Y-73.975
X84.987Y-79.263
X85.675Y-81.4
X86.1Y-83.05
X86.125Y-76.4
X86.275Y-82.0
X86.375Y-73.225
X86.85Y-89.6
X87.075Y-82.925
X87.125Y-78.8
X87.125Y-79.65
X87.15Y-80.45
X87.15Y-92.14
X87.75Y-70.25
X87.775Y-76.55
X88.15Y-78.775
X88.2Y-79.625
X88.2Y-80.425
X88.31Y-85.5
X88.35Y-88.4
X88.475Y-75.6
X89.109Y-85.495
X89.2Y-78.775
X89.225Y-79.575
X89.25Y-80.425
X89.4Y-59.1
X89.575Y-76.5
X89.85Y-88.35
X90.025Y-83.175
X90.584Y-75.748
X90.75Y-89.75
X90.95Y-82.675
X91.65Y-81.875
X92.2Y-84.5
X92.3Y-81.15
X92.35Y-55.795
X92.35Y-87.25
X92.825Y-56.37
X92.925Y-78.8
X93.35Y-55.795
X93.45Y-74.95
X93.725Y-78.35
X96.99Y-85.28
X97.43Y-73.9
X98.65Y-87.65
X101.03Y-77.5
X101.07Y-76.202
X105.8Y-90.3
X106.6Y-87.033
X108.2Y-88.7
X109.6Y-90.75
X110.6Y-81.8
X110.6Y-83.0
X110.6Y-84.2
X111.25Y-95.15
X111.3Y-82.4
X111.3Y-83.6
X111.525Y-77.725
X112.0Y-81.8
X112.0Y-83.0
X112.05Y-95.15
X112.1Y-84.2
X112.2Y-64.5
X112.6Y-82.4
X112.8Y-63.95
X112.8Y-83.6
X113.3Y-81.8
X113.4Y-82.9
X113.4Y-84.2
X115.025Y-65.2
X115.2Y-50.0
X116.05Y-90.4
X116.1Y-89.2
X116.4Y-87.35
X117.0Y-86.75
X117.0Y-89.2
X117.0Y-90.4
X117.366Y-82.4
X117.4Y-81.5
X117.45Y-62.501
X117.75Y-70.05
X117.9Y-89.2
X117.9Y-90.4
X118.2Y-58.925
X118.6Y-86.35
X118.74Y-81.27
X118.82Y-89.19
X118.85Y-90.4
X119.05Y-58.275
X119.125Y-65.075
X119.8Y-90.4
X119.81Y-89.18
X120.15Y-54.5
X120.5Y-49.9
X121.0Y-83.5
X121.4Y-95.1
X122.049Y-55.2
X122.2Y-51.55
X122.55Y-52.348
X122.571Y-53.147
X122.65Y-95.1
X123.15Y-58.4
X123.45Y-55.271
X123.6Y-71.9
X123.65Y-81.55
X124.3Y-50.4
X124.35Y-65.9
X124.4Y-59.7
X124.45Y-55.55
X124.6Y-58.2
X125.45Y-54.609
X126.225Y-62.1
X127.2Y-54.8
X127.5Y-57.65
X128.0Y-58.8
X128.5Y-54.1
X129.05Y-55.15
X129.2Y-60.6
X129.7Y-61.9
X129.75Y-53.3
X130.7Y-66.5
X131.05Y-55.5
X131.2Y-48.95
X131.9Y-61.2
X132.85Y-57.95
X133.3Y-66.1
X133.8Y-55.05
X133.8Y-59.9
X133.8Y-62.2
X134.4Y-58.7
X134.5Y-66.2
X135.05Y-52.45
X135.2Y-53.95
X135.6Y-62.15
X136.0Y-57.6
X138.3Y-55.1
X138.7Y-59.0
X138.7Y-69.5
X138.8Y-72.65
X139.2Y-69.0
X139.5Y-59.8
X139.65Y-54.6
X139.9Y-81.8
X139.99Y-80.7
X140.01Y-79.54
X140.05Y-57.85
X140.2Y-85.6
X140.26Y-83.69
X140.94Y-81.34
X140.97Y-80.13
X141.02Y-86.82
X141.415Y-54.615
X141.45Y-50.45
X141.45Y-51.225
X141.8Y-70.5
X141.975Y-58.85
X142.8Y-65.375
X143.525Y-54.875
X143.6Y-49.975
X143.625Y-48.925
X144.9Y-59.2
X145.45Y-72.2
X145.6Y-60.5
X146.55Y-75.55
X147.875Y-65.45
X147.9Y-61.7
X148.075Y-78.575
X148.2Y-70.2
X148.25Y-76.0
X148.275Y-53.825
X148.275Y-54.675
X148.75Y-62.6
X148.8Y-63.5
X148.8Y-64.6
X149.2Y-70.2
X149.8Y-62.6
X149.8Y-63.5
X149.8Y-64.6
X150.675Y-75.725
X150.8Y-62.55
X150.8Y-63.5
X150.8Y-64.6
X151.027Y-56.808
X151.3Y-77.55
X151.625Y-78.675
X151.65Y-82.325
X151.75Y-56.468
X151.9Y-84.45
X152.45Y-75.7
X153.6Y-54.7
X153.75Y-85.45
X154.0Y-55.6
X154.0Y-59.25
X154.05Y-60.0
X154.275Y-75.3
X154.45Y-71.6
X155.03Y-70.24
X155.375Y-65.25
X155.6Y-87.966
X155.8Y-76.6
X155.9Y-85.5
X156.05Y-72.35
X156.15Y-75.95
X156.6Y-60.63
X156.75Y-55.75
X157.55Y-64.8
X158.5Y-65.725
X159.387Y-67.062
X159.8Y-64.799
X160.225Y-71.6
X161.55Y-85.6
X161.75Y-48.375
X161.75Y-67.975
X162.175Y-70.156
X162.425Y-75.925
X162.73Y-58.8
X162.875Y-69.375
X162.898Y-65.648
X164.075Y-67.025
X164.35Y-82.325
X164.35Y-86.05
X164.8Y-85.6
X164.85Y-67.05
X165.725Y-83.4
X165.925Y-81.025
X166.3Y-59.25
X166.55Y-61.75
X166.75Y-67.8
X180.05Y-70.3
X182.15Y-59.3
X182.3Y-66.3
T2
X30.0Y-70.5
X32.45Y-78.8
X36.4Y-59.65
X38.3Y-56.8
X39.25Y-52.7
X41.03Y-94.3
X41.68Y-94.82
X42.1Y-78.9
X43.35Y-77.05
X44.79Y-93.4
X44.8Y-70.8
X45.5Y-74.0
X45.95Y-57.375
X47.9Y-60.8
X48.4Y-92.4
X48.65Y-67.05
X48.65Y-71.55
X48.8Y-76.85
X49.4Y-84.85
X49.9Y-69.125
X51.3Y-77.05
X52.0Y-59.6
X52.8Y-95.1
X53.15Y-84.45
X53.7Y-49.875
X54.8Y-53.35
X55.4Y-48.3
X55.7Y-84.5
X56.125Y-71.4
X57.6Y-85.75
X57.85Y-90.85
X58.6Y-84.2
X58.75Y-89.1
X58.82Y-92.76
X59.2Y-51.6
X60.7Y-85.4
X62.489Y-95.33
X63.0Y-68.5
X63.05Y-90.8
X63.25Y-92.4
X63.4Y-49.7
X63.5Y-96.0
X63.75Y-91.6
X65.0Y-70.2
X65.1Y-85.0
X65.75Y-91.35
X66.325Y-49.125
X67.9Y-74.0
X68.6Y-71.0
X68.9Y-73.1
X69.45Y-88.4
X69.45Y-90.05
X69.5Y-71.9
X69.6Y-70.3
X69.6Y-77.15
X69.79Y-54.4
X70.0Y-83.1
X71.05Y-70.15
X71.45Y-84.25
X71.8Y-95.9
X71.975Y-75.2
X72.4Y-61.4
X72.4Y-71.4
X72.6Y-95.55
X72.65Y-85.5
X72.75Y-52.05
X73.3Y-67.1
X74.1Y-64.3
X74.3Y-71.6
X76.9Y-56.1
X77.25Y-95.5
X78.0Y-95.9
X80.2Y-82.05
X80.275Y-80.85
X80.4Y-49.4
X81.7Y-68.5
X81.9Y-63.6
X84.9Y-49.3
X85.7Y-86.3
X87.225Y-55.725
X87.3Y-58.8
X88.35Y-89.5
X89.25Y-89.5
X90.225Y-69.575
X90.3Y-49.6
X92.1Y-69.6
X92.95Y-62.05
X94.1Y-58.8
X95.0Y-75.3
X96.3Y-58.0
X96.55Y-75.275
X96.782Y-79.087
X97.95Y-79.1
X97.95Y-82.23
X98.9Y-77.2
X99.25Y-70.45
X99.252Y-79.087
X100.5Y-71.2
X100.8Y-60.9
X101.1Y-66.3
X101.25Y-79.2
X101.3Y-82.2
X102.5Y-68.65
X103.899Y-85.201
X104.675Y-79.375
X104.95Y-80.6
X105.0Y-69.6
X105.05Y-82.32
X105.159Y-83.917
X106.4Y-82.26
X110.75Y-69.55
X111.5Y-76.51
X113.625Y-57.55
X114.85Y-53.35
X117.6Y-75.1
X118.8Y-74.525
X119.743Y-56.843
X123.7Y-49.3
X125.0Y-61.4
X130.0Y-59.5
X130.75Y-88.51
X131.85Y-51.1
X132.1Y-85.6
X133.9Y-51.25
X133.9Y-77.8
X135.0Y-73.75
X135.9Y-49.85
X141.1Y-65.55
X155.65Y-57.45
X172.3Y-58.1
T4
X156.7Y-91.2
X159.2Y-91.2
X161.7Y-91.2
X164.2Y-91.2
T5
X36.29Y-84.36
X36.29Y-86.9
X65.425Y-93.6
X67.965Y-93.6
X84.85Y-61.8
X84.85Y-66.8
X95.85Y-61.8
X95.85Y-66.8
X96.7Y-55.4
X99.19Y-50.36
X99.19Y-52.9
X99.19Y-55.44
X101.73Y-50.36
X101.73Y-52.9
X101.73Y-55.44
X104.27Y-50.36
X104.27Y-52.9
X104.27Y-55.44
X106.81Y-50.36
X106.81Y-52.9
X106.81Y-55.44
X122.6Y-61.8
X126.2Y-48.935
X126.2Y-51.475
X126.5Y-67.475
X126.5Y-70.015
X126.5Y-74.03
X126.5Y-76.57
X126.5Y-79.11
X126.5Y-81.65
X126.5Y-87.718
X126.5Y-92.718
X129.4Y-57.8
X140.2Y-71.8
X144.74Y-88.71
X144.74Y-91.25
X144.74Y-93.79
X147.28Y-88.71
X147.28Y-91.25
X147.28Y-93.79
X149.82Y-88.71
X149.82Y-91.25
X149.82Y-93.79
X152.36Y-88.71
X152.36Y-91.25
X152.36Y-93.79
X157.325Y-73.925
X159.865Y-73.925
X165.0Y-65.1
X165.0Y-70.65
X169.885Y-93.79
X172.425Y-93.79
X183.8Y-56.5
T6
X167.564Y-73.412
X167.564Y-88.652
X170.104Y-73.412
X170.104Y-88.652
X172.644Y-73.412
X172.644Y-88.652
X175.184Y-73.412
X175.184Y-88.652
X177.724Y-73.412
X177.724Y-88.652
X180.264Y-73.412
X180.264Y-88.652
X182.804Y-73.412
X182.804Y-88.652
T7
X152.93Y-50.27
X155.47Y-50.27
X158.01Y-50.27
X160.55Y-50.27
X163.09Y-50.27
X165.63Y-50.27
X168.17Y-50.27
X170.71Y-50.27
X173.25Y-50.27
X175.79Y-50.27
X178.33Y-50.27
T8
X32.795Y-56.85
X32.795Y-61.93
X83.12Y-52.664
X88.2Y-52.664
X95.873Y-91.505
X100.953Y-91.505
X112.415Y-52.695
X117.495Y-52.695
X134.955Y-91.527
X140.035Y-91.527
T9
X48.0Y-54.64
X48.0Y-64.56
X51.4Y-54.64
X51.4Y-64.56
T10
X31.15Y-50.6
X182.4Y-93.6
T11
X33.7Y-73.4
X40.9Y-73.4
T12
X84.11Y-92.36
X89.89Y-92.36
T13
X30.12Y-83.6
X30.12Y-86.6
T14
X77.025Y-50.425
X77.025Y-63.125
X77.025Y-68.2
X122.75Y-68.2
T15
X31.15Y-93.6
X182.4Y-50.6
T16
X106.77Y-64.5
T3
G00X82.68Y-91.28
M15
G01X82.68Y-92.38
M16
G05
G00X82.68Y-95.71
M15
G01X82.68Y-96.31
M16
G05
G00X91.32Y-91.28
M15
G01X91.32Y-92.38
M16
G05
G00X91.32Y-95.71
M15
G01X91.32Y-96.31
M16
G05
T5
G00X73.6Y-88.75
M15
G01X76.2Y-88.75
M16
G05
G00X73.8Y-95.05
M15
G01X76.0Y-95.05
M16
G05
G00X79.7Y-90.55
M15
G01X79.7Y-92.75
M16
G05
T0
M30
