%TF.GenerationSoftware,KiCad,Pcbnew,(6.0.2-0)*%
%TF.CreationDate,2023-06-03T21:04:40-06:00*%
%TF.ProjectId,Catlin RP2040 Sensing Controller,4361746c-696e-4205-9250-323034302053,rev?*%
%TF.SameCoordinates,Original*%
%TF.FileFunction,Soldermask,Bot*%
%TF.FilePolarity,Negative*%
%FSLAX46Y46*%
G04 Gerber Fmt 4.6, Leading zero omitted, Abs format (unit mm)*
G04 Created by KiCad (PCBNEW (6.0.2-0)) date 2023-06-03 21:04:40*
%MOMM*%
%LPD*%
G01*
G04 APERTURE LIST*
G04 Aperture macros list*
%AMRoundRect*
0 Rectangle with rounded corners*
0 $1 Rounding radius*
0 $2 $3 $4 $5 $6 $7 $8 $9 X,Y pos of 4 corners*
0 Add a 4 corners polygon primitive as box body*
4,1,4,$2,$3,$4,$5,$6,$7,$8,$9,$2,$3,0*
0 Add four circle primitives for the rounded corners*
1,1,$1+$1,$2,$3*
1,1,$1+$1,$4,$5*
1,1,$1+$1,$6,$7*
1,1,$1+$1,$8,$9*
0 Add four rect primitives between the rounded corners*
20,1,$1+$1,$2,$3,$4,$5,0*
20,1,$1+$1,$4,$5,$6,$7,0*
20,1,$1+$1,$6,$7,$8,$9,0*
20,1,$1+$1,$8,$9,$2,$3,0*%
%AMFreePoly0*
4,1,22,0.500000,-0.750000,0.000000,-0.750000,0.000000,-0.745033,-0.079941,-0.743568,-0.215256,-0.701293,-0.333266,-0.622738,-0.424486,-0.514219,-0.481581,-0.384460,-0.499164,-0.250000,-0.500000,-0.250000,-0.500000,0.250000,-0.499164,0.250000,-0.499963,0.256109,-0.478152,0.396186,-0.417904,0.524511,-0.324060,0.630769,-0.204165,0.706417,-0.067858,0.745374,0.000000,0.744959,0.000000,0.750000,
0.500000,0.750000,0.500000,-0.750000,0.500000,-0.750000,$1*%
%AMFreePoly1*
4,1,20,0.000000,0.744959,0.073905,0.744508,0.209726,0.703889,0.328688,0.626782,0.421226,0.519385,0.479903,0.390333,0.500000,0.250000,0.500000,-0.250000,0.499851,-0.262216,0.476331,-0.402017,0.414519,-0.529596,0.319384,-0.634700,0.198574,-0.708877,0.061801,-0.746166,0.000000,-0.745033,0.000000,-0.750000,-0.500000,-0.750000,-0.500000,0.750000,0.000000,0.750000,0.000000,0.744959,
0.000000,0.744959,$1*%
G04 Aperture macros list end*
%ADD10C,0.150000*%
%ADD11RoundRect,0.425000X-0.425000X-0.425000X0.425000X-0.425000X0.425000X0.425000X-0.425000X0.425000X0*%
%ADD12RoundRect,0.375000X0.475000X-0.375000X0.475000X0.375000X-0.475000X0.375000X-0.475000X-0.375000X0*%
%ADD13RoundRect,0.425000X0.425000X0.425000X-0.425000X0.425000X-0.425000X-0.425000X0.425000X-0.425000X0*%
%ADD14O,1.700000X1.700000*%
%ADD15R,2.600000X2.600000*%
%ADD16C,2.600000*%
%ADD17C,3.712142*%
%ADD18RoundRect,0.425000X0.425000X-0.425000X0.425000X0.425000X-0.425000X0.425000X-0.425000X-0.425000X0*%
%ADD19C,0.650000*%
%ADD20O,1.000000X2.100000*%
%ADD21O,1.000000X1.600000*%
%ADD22C,1.879600*%
%ADD23RoundRect,0.500000X-0.500000X0.500000X-0.500000X-0.500000X0.500000X-0.500000X0.500000X0.500000X0*%
%ADD24C,2.000000*%
%ADD25C,0.900000*%
%ADD26C,2.700000*%
%ADD27RoundRect,0.375000X-0.375000X-0.375000X0.375000X-0.375000X0.375000X0.375000X-0.375000X0.375000X0*%
%ADD28O,1.500000X1.500000*%
%ADD29RoundRect,0.650000X-0.650000X0.650000X-0.650000X-0.650000X0.650000X-0.650000X0.650000X0.650000X0*%
%ADD30C,1.500000*%
%ADD31C,3.200000*%
%ADD32RoundRect,0.425000X-0.425000X0.425000X-0.425000X-0.425000X0.425000X-0.425000X0.425000X0.425000X0*%
%ADD33RoundRect,0.500000X0.500000X-0.500000X0.500000X0.500000X-0.500000X0.500000X-0.500000X-0.500000X0*%
%ADD34C,5.600000*%
%ADD35C,2.780000*%
%ADD36C,8.400000*%
%ADD37RoundRect,0.250000X-0.600000X-0.725000X0.600000X-0.725000X0.600000X0.725000X-0.600000X0.725000X0*%
%ADD38O,1.700000X1.950000*%
%ADD39C,6.000000*%
%ADD40RoundRect,1.200000X1.700000X1.700000X-1.700000X1.700000X-1.700000X-1.700000X1.700000X-1.700000X0*%
%ADD41RoundRect,0.500000X-1.800000X-0.500000X1.800000X-0.500000X1.800000X0.500000X-1.800000X0.500000X0*%
%ADD42O,4.200000X2.000000*%
%ADD43O,2.000000X4.200000*%
%ADD44RoundRect,0.250000X-0.620000X-0.845000X0.620000X-0.845000X0.620000X0.845000X-0.620000X0.845000X0*%
%ADD45O,1.740000X2.190000*%
%ADD46RoundRect,0.650000X-0.650000X-0.650000X0.650000X-0.650000X0.650000X0.650000X-0.650000X0.650000X0*%
%ADD47C,1.000000*%
%ADD48R,2.000000X2.000000*%
%ADD49RoundRect,0.250000X-0.450000X0.350000X-0.450000X-0.350000X0.450000X-0.350000X0.450000X0.350000X0*%
%ADD50R,1.500000X1.500000*%
%ADD51RoundRect,0.382500X0.382500X-0.382500X0.382500X0.382500X-0.382500X0.382500X-0.382500X-0.382500X0*%
%ADD52C,1.530000*%
%ADD53RoundRect,0.362750X0.362750X-1.915000X0.362750X1.915000X-0.362750X1.915000X-0.362750X-1.915000X0*%
%ADD54FreePoly0,180.000000*%
%ADD55FreePoly1,180.000000*%
%ADD56R,4.000000X4.000000*%
%ADD57RoundRect,0.250000X0.325000X0.450000X-0.325000X0.450000X-0.325000X-0.450000X0.325000X-0.450000X0*%
%ADD58FreePoly0,90.000000*%
%ADD59FreePoly1,90.000000*%
%ADD60C,1.200000*%
%ADD61FreePoly0,0.000000*%
%ADD62FreePoly1,0.000000*%
G04 APERTURE END LIST*
D10*
X64854083Y-83935714D02*
X64746940Y-83992857D01*
X64556464Y-83992857D01*
X64473130Y-83935714D01*
X64427892Y-83878571D01*
X64375511Y-83764285D01*
X64361226Y-83650000D01*
X64385035Y-83535714D01*
X64415988Y-83478571D01*
X64485035Y-83421428D01*
X64630273Y-83364285D01*
X64699321Y-83307142D01*
X64730273Y-83250000D01*
X64754083Y-83135714D01*
X64739797Y-83021428D01*
X64687416Y-82907142D01*
X64642178Y-82850000D01*
X64558845Y-82792857D01*
X64368369Y-82792857D01*
X64261226Y-82850000D01*
X64061226Y-83992857D02*
X63961226Y-83192857D01*
X63911226Y-82792857D02*
X63956464Y-82850000D01*
X63925511Y-82907142D01*
X63880273Y-82850000D01*
X63911226Y-82792857D01*
X63925511Y-82907142D01*
X63680273Y-83992857D02*
X63580273Y-83192857D01*
X63608845Y-83421428D02*
X63556464Y-83307142D01*
X63511226Y-83250000D01*
X63427892Y-83192857D01*
X63351702Y-83192857D01*
X63185035Y-83992857D02*
X63085035Y-83192857D01*
X63035035Y-82792857D02*
X63080273Y-82850000D01*
X63049321Y-82907142D01*
X63004083Y-82850000D01*
X63035035Y-82792857D01*
X63049321Y-82907142D01*
X62818369Y-83192857D02*
X62513607Y-83192857D01*
X62654083Y-82792857D02*
X62782654Y-83821428D01*
X62758845Y-83935714D01*
X62689797Y-83992857D01*
X62613607Y-83992857D01*
X62346940Y-83992857D02*
X62196940Y-82792857D01*
X62004083Y-83992857D02*
X61925511Y-83364285D01*
X61949321Y-83250000D01*
X62018369Y-83192857D01*
X62132654Y-83192857D01*
X62215988Y-83250000D01*
X62261226Y-83307142D01*
X61013607Y-83992857D02*
X60863607Y-82792857D01*
X60558845Y-82792857D01*
X60489797Y-82850000D01*
X60458845Y-82907142D01*
X60435035Y-83021428D01*
X60456464Y-83192857D01*
X60508845Y-83307142D01*
X60554083Y-83364285D01*
X60637416Y-83421428D01*
X60942178Y-83421428D01*
X60213607Y-83992857D02*
X60113607Y-83192857D01*
X60063607Y-82792857D02*
X60108845Y-82850000D01*
X60077892Y-82907142D01*
X60032654Y-82850000D01*
X60063607Y-82792857D01*
X60077892Y-82907142D01*
X59482654Y-83935714D02*
X59565988Y-83992857D01*
X59718369Y-83992857D01*
X59787416Y-83935714D01*
X59818369Y-83878571D01*
X59842178Y-83764285D01*
X59799321Y-83421428D01*
X59746940Y-83307142D01*
X59701702Y-83250000D01*
X59618369Y-83192857D01*
X59465988Y-83192857D01*
X59396940Y-83250000D01*
X59032654Y-83992857D02*
X59101702Y-83935714D01*
X59132654Y-83878571D01*
X59156464Y-83764285D01*
X59113607Y-83421428D01*
X59061226Y-83307142D01*
X59015988Y-83250000D01*
X58932654Y-83192857D01*
X58818369Y-83192857D01*
X58749321Y-83250000D01*
X58718369Y-83307142D01*
X58694559Y-83421428D01*
X58737416Y-83764285D01*
X58789797Y-83878571D01*
X58835035Y-83935714D01*
X58918369Y-83992857D01*
X59032654Y-83992857D01*
X57777892Y-82792857D02*
X57661226Y-83992857D01*
X57244559Y-82792857D01*
X56708845Y-83992857D02*
X57165988Y-83992857D01*
X56937416Y-83992857D02*
X56787416Y-82792857D01*
X56885035Y-82964285D01*
X56975511Y-83078571D01*
X57058845Y-83135714D01*
X56351702Y-83878571D02*
X56320750Y-83935714D01*
X56365988Y-83992857D01*
X56396940Y-83935714D01*
X56351702Y-83878571D01*
X56365988Y-83992857D01*
X55542178Y-83192857D02*
X55642178Y-83992857D01*
X55675511Y-82735714D02*
X55973130Y-83592857D01*
X55477892Y-83592857D01*
D11*
%TO.C,J9*%
X183800000Y-56500000D03*
%TD*%
D12*
%TO.C,J7*%
X165000000Y-70650000D03*
%TD*%
D13*
%TO.C,J16*%
X36290000Y-86900000D03*
D14*
X36290000Y-84360000D03*
%TD*%
D12*
%TO.C,J8*%
X165000000Y-65100000D03*
%TD*%
D15*
%TO.C,J25*%
X117495000Y-52695000D03*
D16*
X112415000Y-52695000D03*
%TD*%
D17*
%TO.C,H3*%
X31150000Y-50600000D03*
%TD*%
D18*
%TO.C,J14*%
X65425000Y-93600000D03*
D14*
X67965000Y-93600000D03*
%TD*%
D19*
%TO.C,J15*%
X84110000Y-92360000D03*
X89890000Y-92360000D03*
D20*
X82680000Y-91830000D03*
D21*
X82680000Y-96010000D03*
X91320000Y-96010000D03*
D20*
X91320000Y-91830000D03*
%TD*%
D22*
%TO.C,JP7*%
X152360000Y-88710000D03*
X152360000Y-91250000D03*
X152360000Y-93790000D03*
X149820000Y-88710000D03*
X149820000Y-91250000D03*
X149820000Y-93790000D03*
X147280000Y-88710000D03*
X147280000Y-91250000D03*
X147280000Y-93790000D03*
X144740000Y-88710000D03*
X144740000Y-91250000D03*
X144740000Y-93790000D03*
%TD*%
D18*
%TO.C,J5*%
X157325000Y-73925000D03*
D14*
X159865000Y-73925000D03*
%TD*%
D23*
%TO.C,C56*%
X84850000Y-61800000D03*
D24*
X84850000Y-66800000D03*
%TD*%
D25*
%TO.C,SW4*%
X30120000Y-83600000D03*
X30120000Y-86600000D03*
%TD*%
D26*
%TO.C,H9*%
X77025000Y-63125000D03*
%TD*%
D27*
%TO.C,J4*%
X126500000Y-67475000D03*
D28*
X126500000Y-70015000D03*
%TD*%
D11*
%TO.C,J10*%
X140200000Y-71800000D03*
%TD*%
D29*
%TO.C,J19*%
X32795000Y-56850000D03*
D16*
X32795000Y-61930000D03*
%TD*%
D26*
%TO.C,H6*%
X77025000Y-50425000D03*
%TD*%
D13*
%TO.C,J22*%
X126500000Y-81650000D03*
D14*
X126500000Y-79110000D03*
X126500000Y-76570000D03*
X126500000Y-74030000D03*
%TD*%
D30*
%TO.C,J1*%
X129400000Y-57800000D03*
%TD*%
D31*
%TO.C,H4*%
X182400000Y-50600000D03*
%TD*%
%TO.C,H2*%
X31150000Y-93600000D03*
%TD*%
D32*
%TO.C,J24*%
X172425000Y-93790000D03*
D14*
X169885000Y-93790000D03*
%TD*%
D23*
%TO.C,C58*%
X95850000Y-61800000D03*
D24*
X95850000Y-66800000D03*
%TD*%
D33*
%TO.C,C54*%
X126500000Y-92717677D03*
D24*
X126500000Y-87717677D03*
%TD*%
D22*
%TO.C,JP5*%
X99190000Y-55440000D03*
X99190000Y-52900000D03*
X99190000Y-50360000D03*
X101730000Y-55440000D03*
X101730000Y-52900000D03*
X101730000Y-50360000D03*
X104270000Y-55440000D03*
X104270000Y-52900000D03*
X104270000Y-50360000D03*
X106810000Y-55440000D03*
X106810000Y-52900000D03*
X106810000Y-50360000D03*
%TD*%
D11*
%TO.C,J2*%
X122600000Y-61800000D03*
%TD*%
D30*
%TO.C,J17*%
X96700000Y-55400000D03*
%TD*%
D34*
%TO.C,H1*%
X182400000Y-93600000D03*
%TD*%
D35*
%TO.C,F1*%
X48000000Y-54640000D03*
X51400000Y-54640000D03*
X51400000Y-64560000D03*
X48000000Y-64560000D03*
%TD*%
D36*
%TO.C,H5*%
X106770000Y-64500000D03*
%TD*%
D26*
%TO.C,H8*%
X122750000Y-68200000D03*
%TD*%
D37*
%TO.C,J11*%
X156700000Y-91200000D03*
D38*
X159200000Y-91200000D03*
X161700000Y-91200000D03*
X164200000Y-91200000D03*
%TD*%
D39*
%TO.C,J20*%
X33700000Y-73400000D03*
D40*
X40900000Y-73400000D03*
%TD*%
D41*
%TO.C,J13*%
X74900000Y-88750000D03*
D42*
X74900000Y-95050000D03*
D43*
X79700000Y-91650000D03*
%TD*%
D44*
%TO.C,J6*%
X152930000Y-50270000D03*
D45*
X155470000Y-50270000D03*
X158010000Y-50270000D03*
X160550000Y-50270000D03*
X163090000Y-50270000D03*
X165630000Y-50270000D03*
X168170000Y-50270000D03*
X170710000Y-50270000D03*
X173250000Y-50270000D03*
X175790000Y-50270000D03*
X178330000Y-50270000D03*
%TD*%
D46*
%TO.C,J23*%
X95872677Y-91505000D03*
D16*
X100952677Y-91505000D03*
%TD*%
D15*
%TO.C,J21*%
X88200000Y-52663994D03*
D16*
X83120000Y-52663994D03*
%TD*%
D46*
%TO.C,J18*%
X134955000Y-91527500D03*
D16*
X140035000Y-91527500D03*
%TD*%
D26*
%TO.C,H7*%
X77025000Y-68200000D03*
%TD*%
D13*
%TO.C,J3*%
X126200000Y-51475000D03*
D14*
X126200000Y-48935000D03*
%TD*%
D47*
%TO.C,TP9*%
X106650000Y-87400000D03*
%TD*%
D48*
%TO.C,TP7*%
X44600000Y-49375000D03*
%TD*%
D49*
%TO.C,R41*%
X71200000Y-88000000D03*
X71200000Y-90000000D03*
%TD*%
D30*
%TO.C,TP4*%
X38450000Y-78670000D03*
%TD*%
D47*
%TO.C,TP14*%
X89775000Y-76650000D03*
%TD*%
%TO.C,TP19*%
X84950000Y-79250000D03*
%TD*%
%TO.C,TP13*%
X84500000Y-73975000D03*
%TD*%
D48*
%TO.C,TP12*%
X92934511Y-56000000D03*
%TD*%
D50*
%TO.C,TP11*%
X112000000Y-82500000D03*
%TD*%
D47*
%TO.C,TP8*%
X118750000Y-86650000D03*
%TD*%
D30*
%TO.C,TP2*%
X144425000Y-54725000D03*
%TD*%
D50*
%TO.C,TP6*%
X43800000Y-85250000D03*
%TD*%
D47*
%TO.C,TP18*%
X93400000Y-78800000D03*
%TD*%
D51*
%TO.C,U4*%
X182804250Y-88651750D03*
D52*
X180264250Y-88651750D03*
X177724250Y-88651750D03*
X175184250Y-88651750D03*
X172644250Y-88651750D03*
X170104250Y-88651750D03*
X167564250Y-88651750D03*
D53*
X167564250Y-89416750D03*
D52*
X167564250Y-73411750D03*
D53*
X167564250Y-72731750D03*
D52*
X170104250Y-73411750D03*
X172644250Y-73411750D03*
X175184250Y-73411750D03*
X177724250Y-73411750D03*
D53*
X180264250Y-72731750D03*
D52*
X180264250Y-73411750D03*
X182804250Y-73411750D03*
D53*
X182809750Y-72754000D03*
%TD*%
D47*
%TO.C,TP16*%
X87525000Y-76625000D03*
%TD*%
D30*
%TO.C,TP10*%
X112950000Y-77450000D03*
%TD*%
D54*
%TO.C,JP1*%
X132750000Y-54850000D03*
D55*
X131450000Y-54850000D03*
%TD*%
D56*
%TO.C,TP3*%
X42250000Y-61875000D03*
%TD*%
D57*
%TO.C,D6*%
X73150000Y-91900000D03*
X71100000Y-91900000D03*
%TD*%
D47*
%TO.C,TP15*%
X92025000Y-76600000D03*
%TD*%
%TO.C,TP17*%
X88675000Y-74900000D03*
%TD*%
D58*
%TO.C,JP2*%
X125200000Y-60850000D03*
D59*
X125200000Y-59550000D03*
%TD*%
D47*
%TO.C,TP1*%
X122450000Y-53350000D03*
%TD*%
D60*
%TO.C,TP5*%
X38550000Y-81300000D03*
%TD*%
D61*
%TO.C,JP6*%
X38730000Y-92450000D03*
D62*
X40330000Y-92450000D03*
%TD*%
M02*
